<svg width="100" height="64" viewBox="0 0 100 64" fill="none" xmlns="http://www.w3.org/2000/svg">
<path d="M96.2835 31.5551H96.1668H96.0798C95.9823 31.5551 95.8857 31.5612 95.79 31.5734L94.6968 31.6671C94.3666 31.696 94.0415 31.7675 93.7298 31.8798C92.3102 30.5828 90.4615 29.8995 88.3535 29.8987C88.0576 29.8987 87.7512 29.9126 87.4431 29.9395C85.1479 30.14 83.0825 30.924 81.3339 32.228C80.2979 31.5052 79.0627 31.1209 77.7985 31.128C77.6079 31.128 77.4129 31.1367 77.2205 31.1532C76.4501 31.2197 75.6939 31.4003 74.9767 31.6888C74.5691 31.5455 74.1399 31.4724 73.7077 31.4726C73.5963 31.4726 73.4849 31.477 73.3735 31.4874L71.9591 31.6107C77.7959 28.454 79.4269 20.427 78.9891 15.4359C78.3686 8.36291 74.491 7.00423 72.0026 6.87747L72.4213 3.49683C72.5456 2.49053 72.1712 1.48684 71.4177 0.806272C70.6643 0.125706 69.6259 -0.146621 68.6343 0.0762532L63.4286 1.24567C62.1404 1.53464 61.1735 2.60023 61.0133 3.90747L60.297 9.67818C59.6811 8.66411 58.5421 8.08609 57.3577 8.18667L52.2321 8.63464C51.5732 8.69146 50.9495 8.956 50.4513 9.38995C49.8849 9.04955 49.2247 8.89754 48.5661 8.95587L43.4404 9.40297C42.5384 9.48161 41.7151 9.94734 41.1844 10.6792L41.7397 6.17947C41.8659 5.17148 41.4917 4.16539 40.737 3.4834C39.9822 2.80142 38.9416 2.52911 37.9484 2.75368L32.7435 3.92397C31.4572 4.21236 30.491 5.27545 30.3291 6.58056L29.5867 12.5891C28.3682 11.3537 26.4734 10.5594 23.7273 10.799C14.9757 11.563 11.8476 21.1119 12.4203 27.6492C12.8503 32.5492 15.8713 35.5218 20.4277 35.6789L20.372 36.1295H20.3564C20.245 36.1295 20.1336 36.1347 20.0222 36.1443L14.8974 36.5914C14.5912 36.6177 14.2893 36.681 13.9983 36.7798C13.5153 36.6972 13.0261 36.6565 12.5361 36.6582C12.2367 36.6582 11.9268 36.6721 11.6065 36.6999C7.48529 37.0602 4.0682 39.5978 1.98713 43.8432C0.490089 46.9026 -0.22884 50.7225 0.0644758 54.0632C0.30731 56.8301 1.24731 59.03 2.85925 60.6005C4.36412 62.0669 6.4095 62.8743 8.61677 62.8743C8.89007 62.8743 9.16859 62.8621 9.44537 62.8378C11.0559 62.7012 12.6023 62.145 13.9295 61.2247C15.0174 61.8154 16.2387 62.1181 17.4772 62.1042C17.7261 62.1042 17.982 62.0929 18.237 62.0703C19.1316 61.994 20.0118 61.7983 20.8542 61.4887C21.0839 61.5314 21.3169 61.553 21.5505 61.5529C21.6619 61.5529 21.7733 61.5477 21.8848 61.5381L27.0104 61.0902C28.3885 60.9707 29.595 60.1191 30.1664 58.8625C31.2334 59.7306 32.8567 60.5484 35.198 60.5484C35.4948 60.5484 35.8012 60.5345 36.1084 60.5076C37.7376 60.3894 39.3021 59.8233 40.6283 58.872C41.8111 59.3799 43.1524 59.6438 44.6189 59.6438C44.9967 59.6438 45.3883 59.6264 45.7835 59.5926C47.7197 59.4251 49.5727 58.7308 51.1406 57.5854C51.8609 58.3188 52.8469 58.7322 53.8762 58.7322C53.9876 58.7322 54.099 58.727 54.2105 58.7175L59.3361 58.2704C61.0609 58.118 62.4687 56.8302 62.7697 55.1293C63.3172 56.6404 64.7553 57.6472 66.3661 57.647C66.4775 57.647 66.5889 57.6427 66.7003 57.6323L71.826 57.1852C73.63 57.0279 75.077 55.6316 75.2944 53.8384L75.7923 49.7259L75.8166 49.7467C75.9446 50.2111 76.1058 50.6657 76.2988 51.1071C76.7837 52.2198 77.5054 53.2139 78.4138 54.0207C80.0057 55.4236 82.1416 56.1651 84.5935 56.1651C84.9712 56.1651 85.3638 56.1468 85.758 56.113C89.1629 55.8161 92.137 53.9573 94.1336 50.8805C95.6707 48.5113 96.555 45.5352 96.7265 42.1928C98.402 40.3792 99.2349 38.1497 99.7371 36.7719C100.19 35.6155 100.052 34.3114 99.3656 33.2754C98.6794 32.2394 97.5312 31.6007 96.287 31.5629L96.2835 31.5551Z" fill="#D53837"/>
<path fill-rule="evenodd" clip-rule="evenodd" d="M75.8674 15.5756C75.4727 11.0704 73.63 9.65823 71.1413 9.87595C70.4303 9.9384 69.6932 10.1093 68.3137 11.1241L69.3203 2.99402L64.1222 4.1624L61.8761 22.265C61.7724 22.9414 61.7485 23.6275 61.8048 24.3094C62.0534 27.1467 63.9093 28.7002 67.1793 28.4148C74.7148 27.7573 76.2316 19.7252 75.8674 15.5756ZM68.8683 24.8004C67.5887 24.9123 66.9316 24.3615 66.8412 23.3336C66.8197 23.058 66.8314 22.7807 66.876 22.5079L68.0416 13.3256C68.3893 12.8303 69.5854 12.5449 70.0826 12.5033C71.3621 12.3923 72.1123 14.0065 72.2644 15.7439C72.5912 19.4711 71.183 24.6018 68.8683 24.8004Z" fill="white"/>
<path d="M37.7999 27.5127C39.1855 27.3913 40.3476 25.9332 40.7249 24.1117L42.2139 23.9816C40.6945 29.9406 37.2436 31.0274 35.3243 31.1957C33.1964 31.3813 31.4127 30.2502 31.152 27.2707C31.0929 26.5968 31.1311 25.8074 31.2345 24.94L33.4798 6.83746L38.6778 5.66907L36.27 25.1803C36.2114 25.5596 36.1971 25.9444 36.2275 26.327C36.3144 27.3202 36.8046 27.5995 37.7999 27.5127Z" fill="white"/>
<path d="M23.6565 29.212C21.9502 29.3612 21.0488 28.865 20.8367 26.4563C20.489 22.5191 22.2327 15.8263 24.4719 15.6303C25.1473 15.5713 25.5149 16.1108 25.5949 16.9981C25.6471 17.601 25.5671 18.3227 25.3515 19.1276C25.8027 19.3748 26.2425 19.4789 26.6328 19.4451C27.6637 19.3583 28.4425 18.4294 28.2904 16.6911C28.147 15.0604 27.2221 13.4991 24.0581 13.7723C16.8434 14.402 15.2423 23.1202 15.603 27.2343C15.9507 31.2425 18.2977 32.6816 21.6434 32.3901C26.3703 31.9746 29.1032 28.4183 30.8425 24.9747L29.6334 25.0806C28.0349 27.2569 26.465 28.9665 23.6565 29.212Z" fill="white"/>
<path fill-rule="evenodd" clip-rule="evenodd" d="M66.8898 38.344C66.7716 36.9961 65.8033 35.7574 64.2039 35.8971C62.4976 36.0463 61.2485 37.2997 60.0958 38.4715L60.3644 36.2328L55.2455 36.6795L54.6214 41.7763C53.8869 42.1033 53.1602 42.3306 52.5222 42.3835C52.3887 42.4031 52.2524 42.3903 52.1249 42.3462C51.7981 38.6216 50.1344 36.8018 47.0772 37.0681C39.7548 37.7073 38.0841 46.436 38.4413 50.5127C38.4754 50.9084 38.5361 51.3014 38.623 51.6889C38.2006 52.3915 37.6529 52.833 36.7881 52.9085C35.7224 53.0013 35.3103 52.4297 35.2356 51.5432C35.1567 50.6412 35.3876 49.2338 35.6397 47.6969C35.9431 45.8479 36.2773 43.8114 36.1396 42.2421C35.891 39.4048 34.1178 38.3804 31.843 38.5791C30.7408 38.6754 29.2013 39.0995 27.8584 40.928L28.9936 31.8203L23.7955 32.9887L21.2591 53.4905C20.8349 54.1315 20.2873 54.5643 19.6023 54.6242C18.607 54.7109 18.0985 54.2191 18.0107 53.2259C17.9807 52.843 17.9953 52.4579 18.0542 52.0784L19.5563 39.7952L14.4416 40.2419L14.2156 42.1562L14.1939 41.9081C14.107 40.8794 13.1821 40.1733 11.1559 40.3468C4.96694 40.8907 2.68431 48.7736 3.10415 53.5625C3.47445 57.7832 5.91614 59.0713 8.33263 58.8606C10.8534 58.6402 12.3842 56.8655 13.3429 55.1308C13.7428 57.2403 15.1223 58.2638 17.1128 58.0894C18.5454 57.9812 19.8915 57.3635 20.9062 56.3486L20.7558 57.5629L25.8748 57.1162L27.3168 45.3743C27.4455 44.3984 28.3599 42.138 29.7437 42.0174C30.633 41.9394 31.1154 42.5379 31.2214 43.7115C31.3195 44.8294 31.0741 46.4887 30.825 48.1733C30.5683 49.9093 30.3076 51.6721 30.4148 52.8963C30.5886 54.9174 31.8682 56.8083 34.9609 56.5394C36.2752 56.4249 37.9746 55.9105 39.3836 53.5729C40.4675 55.2496 42.3607 55.8221 44.6234 55.6243C48.9965 55.2426 52.1858 50.8181 52.1858 44.2067C52.9507 44.0123 53.6989 43.7574 54.4232 43.4443L53.0359 54.7439L58.1548 54.2972L59.8159 40.5697C60.633 39.6763 61.2267 39.0882 62.2924 38.9954C62.7427 38.9562 62.8618 39.367 62.9994 39.8413C63.1874 40.4897 63.4099 41.2568 64.5594 41.1561C66.2987 41.0043 66.9985 39.5853 66.8898 38.344ZM13.0187 51.8381C12.7718 53.9329 11.3724 55.1273 10.3414 55.221C9.70168 55.2765 8.56124 55.3407 8.3222 52.6092C8.03014 49.275 9.42526 42.7209 12.4459 42.4607C13.5837 42.3609 13.9844 43.2552 14.0218 43.6811L13.0187 51.8381ZM43.6976 49.589C43.9028 51.9301 44.4113 52.4219 45.7621 52.3039C47.504 52.1512 49.0374 48.8022 49.239 44.5667C48.4767 44.4548 48.2107 43.8702 48.1481 43.1607C48.0612 42.1675 48.4672 41.4892 49.0826 41.1492C48.8809 39.6659 48.4758 39.129 47.5518 39.2097C45.0276 39.4343 43.3925 46.1133 43.6976 49.589Z" fill="white"/>
<path d="M57.6707 25.7779C56.6754 25.8647 56.1852 25.5863 56.0983 24.5922C56.0679 24.2096 56.0822 23.8248 56.1409 23.4455L57.6429 11.1614L52.524 11.6081L51.1036 23.2061C50.7264 25.0276 49.9197 26.4545 48.5333 26.5751C47.751 26.6436 47.4111 26.0304 47.3398 25.2141C47.315 24.8799 47.3237 24.544 47.3659 24.2114L48.8671 11.9282L43.7446 12.3715L42.3243 23.972C42.2217 24.8394 42.1835 25.6288 42.2426 26.3027C42.5034 29.2822 44.2862 30.4133 46.4193 30.2268C47.9126 30.0967 49.8623 29.4618 51.3844 26.3981C51.7903 28.5788 53.1733 29.6379 55.1986 29.4609C57.1179 29.2926 60.2489 28.2335 61.7683 22.2745L60.275 22.4055C59.8986 24.2253 59.0572 25.6565 57.6707 25.7779Z" fill="white"/>
<path d="M80.3031 37.2545C80.1849 35.9065 79.2166 34.6688 77.6163 34.8076C75.9108 34.9567 74.6609 36.2101 73.5083 37.3829L73.7777 35.1432L68.6623 35.5899L66.4457 53.6544L71.5646 53.2077L73.2266 39.4802C74.0437 38.5868 74.6374 37.9987 75.704 37.9059C76.1547 37.8667 76.2737 38.2776 76.411 38.7521C76.5987 39.4004 76.8207 40.1673 77.9701 40.0666C79.712 39.9148 80.4118 38.4957 80.3031 37.2545Z" fill="white"/>
<path fill-rule="evenodd" clip-rule="evenodd" d="M96.2076 35.2222L95.0698 35.3219C94.7377 36.0297 93.9832 37.6327 92.7602 37.9892C92.2699 34.8509 90.6349 33.3495 87.8264 33.5949C80.5039 34.2342 78.9393 42.9489 79.2974 47.0283C79.6521 51.0713 82.1659 52.4244 85.476 52.1356C89.9551 51.7452 93.1331 47.1428 92.9627 40.2947C94.756 39.102 95.6295 36.8095 96.2076 35.2222ZM86.6181 48.8195C85.2673 48.9375 84.7588 48.4456 84.5537 46.1045C84.2486 42.6289 85.7767 35.956 88.301 35.7339C89.1893 35.6567 89.6266 36.1538 89.8291 37.6422C89.2493 37.9788 88.9112 38.6163 88.9946 39.573C89.0729 40.4604 89.4006 40.9323 89.9882 41.0953C89.8213 45.323 88.3601 48.6677 86.6181 48.8195Z" fill="white"/>
</svg>
