<svg width="100" height="64" viewBox="0 0 100 64" fill="none" xmlns="http://www.w3.org/2000/svg">
<path d="M66.8412 23.3336C66.9316 24.3615 67.5887 24.9123 68.8683 24.8004C71.183 24.6017 72.5912 19.4711 72.2644 15.7439C72.1123 14.0065 71.3621 12.3923 70.0826 12.5033C69.5854 12.5449 68.3893 12.8303 68.0416 13.3256L66.876 22.5079C66.8314 22.7807 66.8197 23.058 66.8412 23.3336Z" fill="white"/>
<path d="M10.3414 55.221C11.3724 55.1273 12.7718 53.9329 13.0187 51.8381L14.0218 43.6811C13.9844 43.2552 13.5837 42.3609 12.4459 42.4607C9.42526 42.7209 8.03014 49.2749 8.3222 52.6092C8.56124 55.3407 9.70168 55.2765 10.3414 55.221Z" fill="white"/>
<path d="M45.7621 52.3039C44.4113 52.4219 43.9028 51.93 43.6976 49.5889C43.3925 46.1133 45.0276 39.4343 47.5518 39.2097C48.4758 39.129 48.8809 39.6659 49.0826 41.1492C48.4672 41.4892 48.0612 42.1675 48.1481 43.1607C48.2107 43.8702 48.4767 44.4548 49.239 44.5667C49.0374 48.8022 47.504 52.1512 45.7621 52.3039Z" fill="white"/>
<path d="M84.5537 46.1045C84.7588 48.4456 85.2673 48.9374 86.6181 48.8194C88.3601 48.6676 89.8213 45.3229 89.9882 41.0953C89.4006 40.9322 89.0729 40.4603 88.9946 39.573C88.9112 38.6162 89.2493 37.9787 89.8291 37.6421C89.6266 36.1537 89.1893 35.6567 88.301 35.7339C85.7767 35.9559 84.2486 42.6288 84.5537 46.1045Z" fill="white"/>
<path fill-rule="evenodd" clip-rule="evenodd" d="M96.2835 31.5551L96.287 31.5629C97.5312 31.6007 98.6794 32.2394 99.3656 33.2754C100.052 34.3114 100.19 35.6155 99.7371 36.7719C99.2349 38.1497 98.402 40.3792 96.7265 42.1928C96.555 45.5352 95.6707 48.5113 94.1336 50.8805C92.137 53.9573 89.1629 55.8161 85.758 56.113C85.3638 56.1468 84.9712 56.1651 84.5935 56.1651C82.1416 56.1651 80.0057 55.4236 78.4138 54.0207C77.5054 53.2139 76.7837 52.2198 76.2988 51.1071C76.1058 50.6657 75.9446 50.2111 75.8166 49.7467L75.7923 49.7259L75.2944 53.8384C75.077 55.6316 73.63 57.0279 71.826 57.1852L66.7003 57.6323C66.5889 57.6427 66.4775 57.647 66.3661 57.647C64.7553 57.6472 63.3172 56.6404 62.7697 55.1293C62.4687 56.8302 61.0609 58.118 59.3361 58.2704L54.2105 58.7175C54.099 58.727 53.9876 58.7322 53.8762 58.7322C52.8469 58.7322 51.8609 58.3188 51.1406 57.5854C49.5727 58.7308 47.7197 59.4251 45.7835 59.5926C45.3883 59.6264 44.9967 59.6438 44.6189 59.6438C43.1524 59.6438 41.8111 59.3799 40.6283 58.872C39.3021 59.8233 37.7376 60.3894 36.1084 60.5076C35.8012 60.5345 35.4948 60.5484 35.198 60.5484C32.8567 60.5484 31.2334 59.7306 30.1664 58.8625C29.595 60.1191 28.3885 60.9707 27.0104 61.0902L21.8848 61.5381C21.7733 61.5477 21.6619 61.5529 21.5505 61.5529C21.3169 61.553 21.0839 61.5314 20.8542 61.4887C20.0118 61.7983 19.1316 61.994 18.237 62.0703C17.982 62.0929 17.7261 62.1042 17.4772 62.1042C16.2387 62.1181 15.0174 61.8154 13.9295 61.2247C12.6023 62.145 11.0559 62.7012 9.44537 62.8378C9.16859 62.8621 8.89007 62.8742 8.61677 62.8742C6.4095 62.8742 4.36412 62.0669 2.85925 60.6005C1.24731 59.03 0.30731 56.8301 0.0644758 54.0632C-0.22884 50.7225 0.490089 46.9026 1.98713 43.8432C4.0682 39.5978 7.48529 37.0602 11.6065 36.6999C11.9268 36.6721 12.2367 36.6582 12.5361 36.6582C13.0261 36.6565 13.5153 36.6972 13.9983 36.7798C14.2893 36.681 14.5912 36.6177 14.8974 36.5914L20.0222 36.1443C20.1336 36.1347 20.245 36.1295 20.3564 36.1295H20.372L20.4277 35.6789C15.8713 35.5218 12.8503 32.5492 12.4203 27.6492C11.8476 21.1119 14.9757 11.563 23.7273 10.799C26.4734 10.5594 28.3682 11.3537 29.5867 12.5891L30.3291 6.58056C30.491 5.27545 31.4572 4.21236 32.7435 3.92397L37.9484 2.75368C38.9416 2.52911 39.9822 2.80142 40.737 3.4834C41.4917 4.16539 41.8659 5.17148 41.7397 6.17947L41.1844 10.6792C41.7151 9.94734 42.5384 9.48161 43.4404 9.40297L48.5661 8.95587C49.2247 8.89754 49.8849 9.04955 50.4513 9.38995C50.9495 8.956 51.5732 8.69146 52.2321 8.63464L57.3577 8.18667C58.5421 8.08609 59.6811 8.66411 60.297 9.67818L61.0133 3.90747C61.1735 2.60023 62.1404 1.53464 63.4286 1.24567L68.6343 0.0762532C69.6259 -0.146621 70.6643 0.125706 71.4177 0.806272C72.1712 1.48684 72.5456 2.49053 72.4213 3.49683L72.0026 6.87747C74.491 7.00423 78.3686 8.36291 78.9891 15.4359C79.4269 20.427 77.7959 28.454 71.9591 31.6107L73.3735 31.4874C73.4849 31.477 73.5963 31.4726 73.7077 31.4726C74.1399 31.4724 74.5691 31.5455 74.9767 31.6888C75.6939 31.4003 76.4501 31.2197 77.2205 31.1532C77.4129 31.1367 77.6079 31.128 77.7985 31.128C79.0627 31.1209 80.2979 31.5052 81.3339 32.228C83.0825 30.924 85.1479 30.14 87.4431 29.9395C87.7512 29.9126 88.0576 29.8987 88.3535 29.8987C90.4615 29.8995 92.3102 30.5828 93.7298 31.8798C94.0415 31.7675 94.3666 31.696 94.6968 31.6671L95.79 31.5734C95.8857 31.5612 95.9823 31.5551 96.0798 31.5551H96.2835ZM71.1413 9.87594C73.63 9.65823 75.4727 11.0703 75.8674 15.5756C76.2316 19.7252 74.7148 27.7573 67.1793 28.4148C63.9093 28.7002 62.0534 27.1467 61.8048 24.3094C61.7485 23.6275 61.7724 22.9414 61.8761 22.265L64.1222 4.1624L69.3203 2.99401L68.3137 11.1241C69.6932 10.1093 70.4303 9.9384 71.1413 9.87594ZM40.7249 24.1118C40.3476 25.9333 39.1855 27.3914 37.7999 27.5129C36.8046 27.5996 36.3144 27.3203 36.2275 26.3271C36.1971 25.9445 36.2114 25.5597 36.27 25.1804L38.6778 5.66918L33.4798 6.83757L31.2345 24.9402C31.1311 25.8075 31.0929 26.5969 31.152 27.2708C31.4127 30.2504 33.1964 31.3814 35.3243 31.1958C37.2436 31.0275 40.6945 29.9407 42.2139 23.9817L40.7249 24.1118ZM20.8367 26.4563C21.0488 28.8651 21.9502 29.3612 23.6565 29.2121C26.465 28.9666 28.0349 27.2569 29.6334 25.0806L30.8425 24.9748C29.1032 28.4184 26.3703 31.9747 21.6434 32.3902C18.2976 32.6816 15.9507 31.2426 15.603 27.2344C15.2423 23.1203 16.8434 14.4021 24.0581 13.7724C27.2221 13.4991 28.147 15.0605 28.2904 16.6912C28.4425 18.4294 27.6637 19.3584 26.6328 19.4452C26.2425 19.479 25.8027 19.3749 25.3515 19.1277C25.5671 18.3227 25.6471 17.6011 25.5949 16.9982C25.5149 16.1109 25.1473 15.5714 24.4719 15.6303C22.2327 15.8264 20.489 22.5192 20.8367 26.4563ZM64.2039 35.8971C65.8033 35.7574 66.7716 36.9961 66.8898 38.344C66.9985 39.5852 66.2987 41.0043 64.5594 41.1561C63.4099 41.2568 63.1874 40.4897 62.9994 39.8413C62.8618 39.367 62.7427 38.9562 62.2924 38.9954C61.2267 39.0882 60.633 39.6763 59.8159 40.5697L58.1548 54.2972L53.0359 54.7439L54.4232 43.4443C53.6989 43.7574 52.9507 44.0123 52.1858 44.2067C52.1858 50.818 48.9965 55.2426 44.6234 55.6243C42.3607 55.8221 40.4675 55.2496 39.3836 53.5729C37.9746 55.9105 36.2752 56.4249 34.9609 56.5394C31.8682 56.8083 30.5886 54.9174 30.4148 52.8963C30.3076 51.672 30.5683 49.9093 30.825 48.1733C31.0741 46.4887 31.3195 44.8294 31.2214 43.7115C31.1154 42.5379 30.633 41.9394 29.7437 42.0174C28.3599 42.138 27.4455 44.3984 27.3168 45.3743L25.8748 57.1162L20.7558 57.5629L20.9062 56.3486C19.8915 57.3635 18.5454 57.9812 17.1128 58.0894C15.1223 58.2638 13.7428 57.2403 13.3429 55.1307C12.3842 56.8655 10.8534 58.6402 8.33263 58.8605C5.91614 59.0713 3.47445 57.7832 3.10416 53.5625C2.68431 48.7736 4.96694 40.8907 11.1559 40.3468C13.1821 40.1733 14.107 40.8794 14.1939 41.9081L14.2156 42.1562L14.4416 40.2419L19.5563 39.7952L18.0542 52.0784C17.9953 52.4579 17.9807 52.843 18.0107 53.2259C18.0985 54.2191 18.607 54.7109 19.6023 54.6242C20.2873 54.5643 20.8349 54.1315 21.2591 53.4905L23.7955 32.9887L28.9936 31.8203L27.8584 40.928C29.2013 39.0995 30.7408 38.6753 31.843 38.5791C34.1178 38.3804 35.891 39.4048 36.1396 42.2421C36.2773 43.8114 35.9431 45.8479 35.6398 47.6969C35.3876 49.2338 35.1567 50.6412 35.2356 51.5432C35.3103 52.4297 35.7224 53.0013 36.7881 52.9085C37.6529 52.833 38.2006 52.3915 38.623 51.6889C38.5361 51.3014 38.4754 50.9084 38.4413 50.5127C38.0841 46.436 39.7548 37.7073 47.0772 37.0681C50.1344 36.8018 51.7981 38.6216 52.1249 42.3462C52.2524 42.3903 52.3887 42.4031 52.5222 42.3835C53.1602 42.3306 53.8869 42.1033 54.6214 41.7763L55.2455 36.6795L60.3644 36.2328L60.0958 38.4715C61.2485 37.2997 62.4976 36.0463 64.2039 35.8971ZM56.0983 24.5919C56.1852 25.5859 56.6754 25.8644 57.6707 25.7776C59.0572 25.6562 59.8986 24.225 60.275 22.4052L61.7683 22.2742C60.2489 28.2332 57.1179 29.2923 55.1986 29.4606C53.1733 29.6376 51.7903 28.5785 51.3844 26.3978C49.8623 29.4615 47.9126 30.0964 46.4193 30.2265C44.2862 30.413 42.5034 29.2819 42.2426 26.3024C42.1835 25.6285 42.2217 24.8391 42.3243 23.9717L43.7446 12.3711L48.8671 11.9279L47.3659 24.2111C47.3237 24.5437 47.315 24.8796 47.3398 25.2138C47.4111 26.0301 47.751 26.6433 48.5333 26.5748C49.9197 26.4542 50.7264 25.0273 51.1036 23.2058L52.524 11.6078L57.6429 11.1611L56.1409 23.4452C56.0822 23.8245 56.0679 24.2093 56.0983 24.5919ZM77.6163 34.8077C79.2166 34.6689 80.1849 35.9066 80.3031 37.2546C80.4118 38.4958 79.712 39.9149 77.9701 40.0667C76.8207 40.1673 76.5987 39.4005 76.411 38.7522C76.2737 38.2777 76.1547 37.8668 75.704 37.906C74.6374 37.9988 74.0437 38.5869 73.2266 39.4803L71.5647 53.2078L66.4457 53.6545L68.6623 35.59L73.7777 35.1433L73.5083 37.383C74.6609 36.2102 75.9109 34.9568 77.6163 34.8077ZM95.0698 35.3219L96.2076 35.2221C95.6295 36.8094 94.756 39.102 92.9627 40.2946C93.1331 47.1427 89.9551 51.7452 85.476 52.1355C82.1659 52.4243 79.6521 51.0712 79.2974 47.0283C78.9393 42.9489 80.5039 34.2341 87.8264 33.5949C90.6349 33.3494 92.2699 34.8509 92.7602 37.9891C93.9832 37.6326 94.7377 36.0297 95.0698 35.3219Z" fill="white"/>
</svg>
