<svg width="48" height="60" viewBox="0 0 48 60" fill="none" xmlns="http://www.w3.org/2000/svg">
<path d="M44.3347 44.3326C46.5772 42.0895 47.8368 39.0475 47.8364 35.8758V34.8616L47.8363 34.8864C46.953 36.0318 44.2591 37.4409 41.2091 37.4409C36.7121 37.4409 32.1818 34.7682 31.7288 29.7515H31.3818C29.0924 36.9924 23.1591 38.6909 18.7303 37.7015C10.8515 35.95 10.7 24.6379 11.3227 18.4288C11.3303 18.3506 11.3387 18.2594 11.3481 18.1568C11.5145 16.3455 12.0067 10.9857 14.5045 11.294C16.6094 11.5536 16.5257 13.3337 16.4309 15.3524C16.4233 15.5135 16.4157 15.676 16.4091 15.8394C16.3866 16.4021 16.346 17.0532 16.3014 17.7673C15.9254 23.7974 15.2689 34.3227 22.8878 34.0667C29.7379 33.8324 30.5986 26.2856 31.2619 20.4689C31.4138 19.1373 31.5553 17.8963 31.756 16.8546C32.1954 14.5576 35.9015 14.6152 35.7697 17.5349C35.6865 19.4106 35.6103 21.0308 35.5292 22.759C35.4802 23.8004 35.4295 24.881 35.3742 26.0803C34.8849 36.6079 43.4995 36.803 47.8364 33.904V11.9606C47.8372 8.78874 46.5777 5.7465 44.3351 3.50336C42.0926 1.26023 39.0507 9.60862e-08 35.8788 9.60862e-08H11.9606C8.78833 -0.000401743 5.74587 1.2596 3.50274 3.50274C1.2596 5.74587 -0.000401743 8.78833 9.60861e-08 11.9606V35.8758C9.60861e-08 42.4814 5.35495 47.8364 11.9606 47.8364H35.8788C39.0505 47.836 42.0922 46.5756 44.3347 44.3326Z" fill="#E1251B"/>
<path fill-rule="evenodd" clip-rule="evenodd" d="M46.597 57.4015C46.597 57.4015 46.6698 57.0788 47.0425 57.2136L47.0485 57.2182C47.0485 57.2182 47.3349 57.2863 47.3001 57.5212C47.2501 57.7247 47.1811 57.9231 47.094 58.1136C46.9408 58.4701 46.7189 58.7929 46.441 59.0636C46.1694 59.3267 45.8479 59.5327 45.4955 59.6697C45.1083 59.8157 44.6972 59.8882 44.2834 59.8833C43.7465 59.8945 43.2142 59.7825 42.7273 59.556C42.2956 59.356 41.9136 59.0626 41.6091 58.6969C41.3102 58.3278 41.0854 57.9044 40.947 57.45C40.7965 56.9696 40.7218 56.4686 40.7258 55.9651C40.7222 55.4592 40.7968 54.9558 40.947 54.4727C41.0873 54.0182 41.3119 53.5941 41.6091 53.2227C41.9138 52.8557 42.2956 52.5603 42.7273 52.3576C43.2139 52.1354 43.7441 52.0252 44.2788 52.0348C44.6345 52.0317 44.9886 52.0828 45.3288 52.1863C45.6629 52.2888 45.9771 52.4477 46.2576 52.656C46.5353 52.8619 46.7708 53.119 46.9516 53.4136C46.9899 53.4713 47.0233 53.5322 47.0516 53.5954C47.1027 53.6709 47.1152 53.7661 47.0854 53.8523C47.0556 53.9385 46.9869 54.0055 46.9001 54.0333C46.4849 54.1894 46.3895 53.8742 46.3895 53.8742V53.8818C46.358 53.8141 46.3226 53.7483 46.2834 53.6848C46.1435 53.4624 45.9644 53.2673 45.7546 53.1091C45.3287 52.795 44.8125 52.6275 44.2834 52.6318C43.836 52.6204 43.3926 52.7192 42.9925 52.9197C42.6451 53.1011 42.3444 53.3604 42.1137 53.6772C41.88 53.9959 41.7083 54.3557 41.6076 54.7379C41.3849 55.5306 41.3849 56.3694 41.6076 57.1621C41.7073 57.5469 41.8791 57.9094 42.1137 58.2303C42.3444 58.5471 42.6451 58.8064 42.9925 58.9879C43.3931 59.1868 43.8363 59.2846 44.2834 59.2727C44.9174 59.2846 45.5268 59.0275 45.9607 58.5651C46.1695 58.3397 46.3386 58.0805 46.4607 57.7985C46.5107 57.6712 46.5561 57.5409 46.597 57.4015ZM0.536419 56.6076V52.9727C0.519099 52.722 0.592802 52.4734 0.743995 52.2727C0.884766 52.1194 1.08609 52.0362 1.29399 52.0454C1.50697 52.035 1.7139 52.118 1.86066 52.2727C2.0127 52.473 2.08601 52.722 2.06672 52.9727V56.6894C2.05918 57.048 2.1067 57.4057 2.20763 57.75C2.29506 58.0211 2.47324 58.2539 2.71218 58.4091C3.01975 58.5821 3.37041 58.6636 3.72278 58.6439C4.31975 58.6439 4.74399 58.4833 4.98793 58.1651C5.23187 57.8469 5.36218 57.3636 5.36218 56.7197V52.9757C5.34184 52.7242 5.41464 52.474 5.56672 52.2727C5.70958 52.1209 5.91154 52.0391 6.11975 52.0485C6.32887 52.039 6.53179 52.1208 6.67581 52.2727C6.83543 52.4706 6.91299 52.7223 6.89248 52.9757V56.6121C6.90501 57.1108 6.84634 57.6088 6.71824 58.0909C6.60222 58.4918 6.37658 58.8523 6.06672 59.1318C5.79354 59.3873 5.46622 59.5779 5.10915 59.6894C4.69387 59.8129 4.26203 59.8717 3.82884 59.8636C3.32332 59.8732 2.81909 59.8094 2.33187 59.6742C1.94549 59.5712 1.5922 59.3703 1.30612 59.0909C1.02726 58.8109 0.826203 58.4631 0.722783 58.0818C0.590631 57.6018 0.527873 57.1053 0.536419 56.6076ZM14.2879 55.303C14.2973 54.8062 14.2345 54.3106 14.1016 53.8318C13.8936 53.0486 13.2769 52.44 12.491 52.2424C12.0038 52.11 11.5003 52.0472 10.9955 52.056C10.5629 52.0474 10.1315 52.1056 9.71672 52.2288C9.36037 52.3411 9.03334 52.531 8.75915 52.7848C8.45022 53.0666 8.22437 53.4277 8.10612 53.8288C7.97957 54.3096 7.92093 54.8059 7.93187 55.303V58.9394C7.91411 59.1904 7.98965 59.4391 8.14399 59.6379C8.28993 59.7933 8.49608 59.8779 8.70915 59.8697C8.91725 59.8773 9.11805 59.7924 9.25763 59.6379C9.4106 59.4387 9.48405 59.1897 9.46369 58.9394V55.1863C9.46369 54.5424 9.5849 54.0576 9.83339 53.7424C10.0819 53.4273 10.5046 53.2621 11.1016 53.2621C11.4545 53.2406 11.8059 53.3233 12.1122 53.5C12.3504 53.6535 12.5273 53.8856 12.6122 54.156C12.7189 54.4992 12.7701 54.8573 12.7637 55.2166V58.9394C12.7443 59.1896 12.8188 59.4381 12.9728 59.6363C13.1195 59.7858 13.3202 59.87 13.5296 59.87C13.739 59.87 13.9397 59.7858 14.0864 59.6363C14.2357 59.4361 14.3073 59.1884 14.2879 58.9394V55.303ZM15.9394 59.6394C15.7814 59.4418 15.704 59.1917 15.7228 58.9394V52.9757C15.7043 52.7242 15.7799 52.4747 15.9349 52.2757C16.0763 52.1245 16.2765 52.0421 16.4834 52.05C16.6923 52.0424 16.8948 52.1233 17.041 52.2727C17.1983 52.4717 17.2746 52.7228 17.2546 52.9757V58.9394C17.2735 59.1922 17.1973 59.4429 17.041 59.6424C16.897 59.7962 16.6939 59.8806 16.4834 59.8742C16.2766 59.8785 16.0782 59.7928 15.9394 59.6394ZM31.7304 56.7757L30.2682 52.9136L28.7622 56.7757H31.7304ZM28.5425 57.3818H31.9713L32.7864 59.4576C32.8762 59.6367 33.0654 59.7439 33.2652 59.7288C33.641 59.7288 33.5531 59.4576 33.5531 59.4576L30.8258 52.4969C30.7172 52.3108 30.5179 52.1963 30.3023 52.1963C30.0868 52.1963 29.8875 52.3108 29.7788 52.4969L26.9819 59.456C26.9773 59.4651 26.8925 59.7257 27.2576 59.7257C27.4589 59.7419 27.6499 59.6347 27.741 59.4545L28.5425 57.3818ZM25.8288 52.1894C25.3576 52.1894 25.2152 52.4015 25.1788 52.4757L22.694 58.8L20.2016 52.4848C20.1728 52.4182 20.0379 52.1939 19.5516 52.1939C19.0652 52.1939 19.0304 52.5757 19.0304 52.5757V59.3682C19.0304 59.4637 19.0684 59.5552 19.1361 59.6226C19.2037 59.69 19.2955 59.7277 19.391 59.7273C19.4859 59.7273 19.577 59.6893 19.6438 59.6219C19.7107 59.5545 19.7478 59.4631 19.747 59.3682V53.2166H19.7682L22.2258 59.403C22.301 59.5943 22.4825 59.7228 22.6879 59.7303C22.897 59.7252 23.0833 59.5967 23.1622 59.403L25.6061 53.2166H25.6228V59.3712C25.6351 59.5617 25.7932 59.7099 25.9841 59.7099C26.1751 59.7099 26.3332 59.5617 26.3455 59.3712V52.5757C26.3455 52.5757 26.3213 52.1909 25.8258 52.1909L25.8288 52.1894ZM38.8819 55.3863C38.7309 55.515 38.5565 55.6132 38.3682 55.6757H38.3713C38.1694 55.7447 37.9574 55.7795 37.744 55.7788H35.0667V52.8106H37.741C38.2895 52.8106 38.7016 52.9424 38.9682 53.2121C39.2455 53.5073 39.3901 53.9031 39.3682 54.3076C39.3787 54.7224 39.1997 55.1195 38.8819 55.3863ZM39.3001 58.5621C39.2819 58.2954 39.2576 58.0318 39.2288 57.7666C39.2032 57.5214 39.135 57.2824 39.0273 57.0606C38.9295 56.8541 38.7757 56.6793 38.5834 56.556C38.3424 56.421 38.066 56.3624 37.791 56.3879H35.0637V59.3742C35.0724 59.5078 35.006 59.6351 34.8916 59.7046C34.7771 59.774 34.6336 59.774 34.5191 59.7046C34.4047 59.6351 34.3383 59.5078 34.347 59.3742V52.4576C34.3437 52.3852 34.3718 52.3149 34.424 52.2647C34.4762 52.2145 34.5476 52.1892 34.6198 52.1954H37.8016C38.1 52.1921 38.3973 52.2308 38.6849 52.3106C38.9487 52.3795 39.196 52.5005 39.4122 52.6666C39.6231 52.8265 39.7929 53.0342 39.9076 53.2727C40.0377 53.547 40.101 53.8481 40.0925 54.1515C40.1031 54.5942 39.9749 55.0292 39.7258 55.3954C39.4636 55.7581 39.0688 56.0025 38.6273 56.0757V56.0909C38.8399 56.1187 39.0455 56.186 39.2334 56.2894C39.3895 56.38 39.5239 56.5036 39.6273 56.6515C39.7313 56.8073 39.8072 56.9801 39.8516 57.1621C39.8985 57.3699 39.9279 57.5812 39.9394 57.7939C39.9394 57.8901 39.9464 58.0009 39.9543 58.1285C39.9569 58.1697 39.9596 58.2127 39.9622 58.2576L39.967 58.3418C39.9758 58.4976 39.9847 58.6551 40.0001 58.8091C40.0187 58.9879 40.0527 59.1648 40.1016 59.3379C40.1152 59.3863 40.1304 59.4272 40.1455 59.4682C40.1455 59.4682 40.2198 59.7242 39.8516 59.7242C39.6613 59.743 39.4796 59.6406 39.397 59.4682C39.3713 59.3646 39.353 59.2592 39.3425 59.153C39.3387 59.1065 39.3347 59.061 39.3307 59.0162C39.3251 58.9532 39.3196 58.8914 39.3152 58.8303C39.312 58.7861 39.3096 58.7439 39.3074 58.7039C39.3043 58.6493 39.3014 58.5984 39.297 58.553L39.3001 58.5621Z" fill="#1D1D1B"/>
</svg>
