<svg width="159" height="38" viewBox="0 0 159 38" fill="none" xmlns="http://www.w3.org/2000/svg">
<path d="M1.88738 9.83901C2.93009 9.83901 3.77723 8.98476 3.77723 7.93119C3.77723 6.87822 2.93009 6.02332 1.88738 6.02332C0.847145 6.02332 0 6.87822 0 7.93119C5.38985e-08 8.98476 0.847145 9.83901 1.88738 9.83901Z" fill="#D6006D"/>
<path d="M63.2837 7.47706C63.2731 7.46457 63.2626 7.45083 63.2482 7.43834C62.1096 6.38472 60.2895 5.73233 58.1797 5.73043C58.1517 5.7267 58.1081 5.7267 58.067 5.7267C56.3322 5.72546 54.6212 6.08916 53.1343 7.36648L53.1325 7.36772V6.24662H53.1356V0.569285C53.1356 0.419934 53.072 0.272476 52.9599 0.168114C52.8484 0.06186 52.6927 0 52.5332 0H50.5637C50.4073 0 50.2522 0.06186 50.1382 0.168114C50.0255 0.272476 49.9626 0.419934 49.9626 0.569285V23.9454C49.9626 24.0954 50.0274 24.2429 50.1382 24.3466C50.2516 24.4535 50.4073 24.5147 50.5655 24.5147H52.5339C52.6927 24.5147 52.8478 24.4535 52.9599 24.3466C53.0745 24.2429 53.1368 24.0954 53.1368 23.9454V22.7781C54.4505 24.2523 56.3366 24.7603 58.067 24.7597H58.1885C60.2926 24.7528 62.1127 24.1004 63.2482 23.0487C65.3698 21.0333 65.8544 17.9444 65.8612 15.0729C65.8556 12.2171 65.3698 9.48491 63.2837 7.47706ZM62.6926 15.1579C62.687 16.952 62.4976 18.7055 61.8175 19.9597C61.1485 21.167 60.0733 21.9732 57.986 22.0051C57.9723 22.0032 57.9499 22.0032 57.9082 22.0051H57.8733C55.7716 21.9845 54.6828 21.1765 54.0107 19.9579C53.3243 18.6987 53.1325 16.9308 53.1325 15.1254V15.0167C53.1343 13.2232 53.3243 11.7834 54.0107 10.5298C54.6828 9.31118 55.7716 8.50256 57.8733 8.4832H57.9543C60.0571 8.50256 61.1422 9.30934 61.8199 10.5323C62.5008 11.7834 62.6926 13.2232 62.6926 15.0167V15.1579Z" fill="#6B1A6B"/>
<path d="M81.4288 22.9944C83.5142 20.9872 84.0007 18.2545 84.0057 15.3986C83.9988 12.5278 83.5142 9.43816 81.3926 7.42344C80.2578 6.37112 78.4377 5.71867 76.3329 5.71185H76.2114C74.4811 5.71121 72.5955 6.21922 71.2813 7.69408V6.52609C71.2813 6.37609 71.219 6.22928 71.1043 6.12487C70.9922 6.01802 70.8371 5.95681 70.6783 5.95681H68.7106C68.5518 5.95681 68.396 6.01802 68.2833 6.12487C68.1718 6.22928 68.107 6.37609 68.107 6.52609V29.9023C68.107 30.0516 68.1699 30.1991 68.2833 30.3034C68.3966 30.4103 68.5518 30.4715 68.7081 30.4715H70.6777C70.8371 30.4715 70.9929 30.4103 71.1043 30.3034C71.2165 30.1991 71.28 30.0516 71.28 29.9023V24.2249H71.2769V23.1044L71.2787 23.1057C72.7656 24.3824 74.4773 24.7454 76.2114 24.7448C76.2526 24.7448 76.2962 24.7448 76.3242 24.7411C78.4339 24.7392 80.2546 24.0874 81.3926 23.0338C81.407 23.0207 81.4175 23.0076 81.4288 22.9944ZM80.8371 15.4555C80.8371 17.249 80.6452 18.6881 79.9644 19.9392C79.2867 21.1622 78.2016 21.9696 76.0987 21.9889H76.0177C73.9161 21.9696 72.8272 21.1603 72.1552 19.9417C71.4687 18.6881 71.2787 17.249 71.2769 15.4555V15.3468C71.2769 13.5414 71.4687 11.7735 72.1552 10.5137C72.8272 9.29568 73.9161 8.48766 76.0177 8.46646H76.0526C76.095 8.4683 76.1168 8.4683 76.1305 8.46646C78.2184 8.49831 79.2935 9.30444 79.9619 10.5118C80.6421 11.7666 80.832 13.5195 80.8371 15.3136V15.4555Z" fill="#6B1A6B"/>
<path d="M109.686 26.2442C109.513 26.7148 109.202 27.4746 108.994 27.9308C108.994 27.9308 108.62 28.7582 108.089 29.2919C107.603 29.7787 107.049 30.1149 106.424 30.3005C105.8 30.4861 105.39 30.5149 105.39 30.5149C104.891 30.5499 104.163 30.5792 103.772 30.5792C103.381 30.5792 103.061 30.168 103.061 29.6668V28.3258C103.061 27.824 103.264 27.4134 103.512 27.4134C103.76 27.4134 104.37 27.3709 104.867 27.3197C104.867 27.3197 105.246 27.2797 105.592 27.0128C105.94 26.7454 106.115 26.3611 106.115 26.3611C106.323 25.9055 106.631 25.1449 106.797 24.6713L107.161 23.6402C107.328 23.1671 107.324 22.3947 107.152 21.9235L101.64 6.80875C101.468 6.33755 101.737 5.95201 102.237 5.95201H104.163C104.663 5.95201 105.204 6.34069 105.365 6.81627L108.975 17.506C109.136 17.9816 109.396 17.9803 109.552 17.5042L113.073 6.81875C113.23 6.34193 113.768 5.95201 114.268 5.95201H116.228C116.729 5.95201 116.996 6.33696 116.824 6.8081L109.686 26.2442Z" fill="#6B1A6B"/>
<path d="M100.662 12.0999V12.0868C100.662 10.2002 100.036 8.5823 98.7231 7.50121C97.402 6.4126 95.504 5.90144 93.0623 5.90015H92.9408C90.3751 5.89328 88.3395 6.45321 86.7892 8.10672L86.7823 8.10175L86.6932 8.2086C86.5773 8.33735 86.4627 8.47172 86.3506 8.61355C86.3506 8.6148 86.3494 8.61669 86.3487 8.61793L86.1906 8.80665C86.0952 8.91912 86.0485 9.07096 86.0678 9.2241C86.0846 9.37658 86.1619 9.52404 86.2808 9.62716L86.3699 9.70465C86.4042 9.74526 86.4422 9.78403 86.4845 9.81836L86.8309 10.1046L87.754 10.9045C87.8717 11.0076 88.0274 11.0638 88.1782 11.0557C88.3289 11.0501 88.4685 10.9807 88.5644 10.8676L89.1561 10.1627C89.5255 9.76213 89.9055 9.47467 90.3633 9.27346C91.0105 8.98974 91.8408 8.85602 93.0411 8.84477L93.0555 8.84412L93.0953 8.84288C94.8026 8.84726 95.864 9.19533 96.472 9.73028C97.0787 10.2565 97.3864 11.0526 97.3907 12.2887C97.3907 12.2968 97.3907 12.3187 97.3939 12.3468V13.5129H92.326C90.2811 13.5179 88.5712 13.9803 87.3379 14.9458C86.1127 15.8901 85.4288 17.3424 85.4281 19.0352L85.4288 19.099C85.4319 20.5094 85.9601 21.8923 86.9206 22.8522C88.2174 24.1345 89.9453 24.6001 92.5552 24.6001H93.9075C96.2982 24.6026 98.0136 24.0096 99.118 22.8153C100.221 21.6224 100.662 19.8939 100.662 17.7473V12.1318L100.662 12.0999ZM88.6995 19.0577V19.0146C88.7095 18.0579 89.0004 17.4598 89.5473 17.0393C90.1198 16.6018 91.0834 16.3187 92.5266 16.3187H97.3939V17.836C97.3889 19.3246 97.0631 20.1469 96.6277 20.5306C95.5744 21.5043 94.2713 21.6505 92.683 21.6542H92.6368C91.107 21.6555 90.1029 21.3905 89.5336 20.9756C88.9917 20.5838 88.7132 20.0232 88.6995 19.0577Z" fill="#6B1A6B"/>
<path d="M29.6169 5.98446C29.0937 5.98446 28.5499 6.39753 28.4072 6.90123L24.9645 19.0827C24.8218 19.5882 24.5715 19.5926 24.4083 19.0945L20.4037 6.88998C20.2411 6.39191 19.6799 5.98446 19.1573 5.98446H18.4391C17.9165 5.98446 17.3559 6.39191 17.194 6.89057L13.2217 19.0945C13.0592 19.5926 12.8088 19.5889 12.6649 19.0839L9.19164 6.90188C9.04773 6.39753 8.50206 5.98447 7.97946 5.98447H6.51633C5.99432 5.98447 5.69594 6.3938 5.85354 6.89371L11.1662 23.7032C11.3244 24.2026 11.8806 24.6125 12.4039 24.6125H13.4086C13.8752 24.6125 14.3778 24.2494 14.5261 23.8058L18.497 11.9149C18.6633 11.4181 18.9362 11.4181 19.1037 11.9143L23.0734 23.7089C23.2409 24.2051 23.8053 24.6125 24.3273 24.6125H25.2996C25.7842 24.6125 26.2987 24.2332 26.4445 23.7701L31.7441 6.89436C31.901 6.3938 31.6021 5.98446 31.08 5.98446L29.6169 5.98446Z" fill="#6B1A6B"/>
<path d="M35.6965 13.6338C35.7625 12.4747 35.846 11.956 36.1992 11.0855C36.8482 9.54253 38.3357 8.58457 40.0811 8.58457C41.8258 8.58457 43.3126 9.54194 43.9623 11.0823C44.3161 11.956 44.3995 12.4747 44.4649 13.6338H35.6965ZM47.7115 14.7081C47.7115 9.17948 44.7876 5.74431 40.0811 5.74431C35.3034 5.74431 32.4506 9.28633 32.4506 15.2174C32.4506 21.3253 35.3283 24.6899 40.5519 24.6899C43.7966 24.6899 45.5376 23.5981 47.2947 21.8359L47.5283 21.6022L45.2853 19.6268L45.0804 19.8324C43.649 21.2685 42.4823 21.7777 40.6248 21.7777C37.5309 21.7777 35.7787 19.8049 35.684 16.2185H47.7115V14.7081Z" fill="#6B1A6B"/>
<path d="M116.729 24.5931C117.772 24.5931 118.619 23.7389 118.619 22.6866C118.619 21.6323 117.772 20.7768 116.729 20.7768C115.688 20.7768 114.843 21.6323 114.843 22.6866C114.843 23.7389 115.688 24.5931 116.729 24.5931Z" fill="#D6006D"/>
<path d="M127.444 8.03864H125.351V11.187H127.444C128.458 11.187 129.102 10.5576 129.102 9.62093C129.102 8.68416 128.458 8.03864 127.444 8.03864ZM127.556 13.2054H125.351V17.5323H123.114V6.0364H127.556C129.922 6.0364 131.338 7.66683 131.338 9.62093C131.338 11.5744 129.922 13.2054 127.556 13.2054Z" fill="#D6006D"/>
<path d="M132.636 17.5324V6.0364H134.873V15.5301H140.071V17.5324H132.636Z" fill="#D6006D"/>
<path d="M144.865 17.6292C142.516 17.6292 140.649 16.0307 140.649 13.5929V6.0364H142.887V13.5123C142.887 14.8358 143.659 15.627 144.865 15.627C146.073 15.627 146.862 14.8358 146.862 13.5123V6.0364H149.082V13.5929C149.082 16.0307 147.216 17.6292 144.865 17.6292Z" fill="#D6006D"/>
<path d="M154.757 17.6449C153.021 17.6449 151.703 17.2743 150.579 16.1295L152.025 14.6784C152.748 15.4039 153.728 15.6458 154.789 15.6458C156.107 15.6458 156.814 15.1458 156.814 14.2272C156.814 13.8235 156.701 13.4854 156.46 13.2592C156.236 13.0499 155.978 12.9368 155.448 12.8561L154.065 12.6631C153.086 12.5175 152.362 12.2112 151.848 11.7113C151.302 11.1632 151.028 10.4215 151.028 9.4541C151.028 7.40628 152.539 5.9715 155.014 5.9715C156.589 5.9715 157.73 6.35834 158.71 7.30944L157.296 8.71237C156.573 8.01931 155.705 7.92247 154.95 7.92247C153.76 7.92247 153.182 8.58362 153.182 9.37353C153.182 9.66412 153.278 9.97034 153.52 10.1959C153.745 10.4059 154.114 10.5827 154.58 10.6471L155.93 10.8408C156.975 10.9858 157.634 11.2764 158.116 11.7276C158.727 12.3081 159 13.1467 159 14.1622C159 16.3876 157.151 17.6449 154.757 17.6449Z" fill="#D6006D"/>
<path d="M5.18334 33.2015C5.51352 33.2015 5.78194 32.9309 5.78194 32.5972C5.78194 32.2641 5.51352 31.9929 5.18334 31.9929C4.85386 31.9929 4.58539 32.2641 4.58539 32.5972C4.58539 32.9309 4.85386 33.2015 5.18334 33.2015Z" fill="#009FE3"/>
<path d="M23.1631 34.28C23.1618 33.6058 22.9282 33.0377 22.5052 32.654L22.4754 32.6278L22.4685 32.6215C22.0705 32.2779 21.5298 32.0972 20.8913 32.0916C20.8913 32.0916 20.8833 32.0903 20.877 32.0903C20.8708 32.0903 20.8651 32.091 20.8595 32.0916H20.8546C20.8353 32.0916 20.8222 32.0922 20.8129 32.0922C20.8054 32.0922 20.7936 32.0916 20.7792 32.0916H20.7699C20.7649 32.0916 20.7586 32.0903 20.7512 32.0903H20.7456C20.7418 32.0903 20.7375 32.0903 20.7332 32.0916C20.0953 32.0985 19.5583 32.2784 19.1616 32.6215H19.1597L19.1236 32.654C18.7019 33.0359 18.4683 33.602 18.4652 34.2719L18.4646 34.2756L18.4614 37.7446C18.4614 37.7902 18.4807 37.8358 18.5156 37.8683C18.5499 37.9014 18.5985 37.9201 18.6471 37.9201H19.2625C19.3104 37.9201 19.3584 37.9014 19.3933 37.8683C19.4282 37.8358 19.4475 37.7902 19.4475 37.7446L19.4487 34.3925C19.4525 33.9014 19.5777 33.5533 19.8038 33.3233C20.023 33.1002 20.3569 32.9746 20.8166 32.9658C21.2719 32.9746 21.6058 33.1002 21.8251 33.3233C22.0505 33.5533 22.1757 33.9014 22.1795 34.3932L22.1789 37.7446C22.1789 37.7902 22.1988 37.8358 22.233 37.8683C22.2679 37.9014 22.3159 37.9201 22.3645 37.9201H22.9805C23.0291 37.9201 23.0771 37.9014 23.1113 37.8683C23.1468 37.8358 23.1661 37.7902 23.1661 37.7446L23.1631 34.28Z" fill="#D6006D"/>
<path d="M44.6199 34.28C44.6187 33.6058 44.3851 33.0377 43.9615 32.654L43.9323 32.6278L43.9254 32.6215C43.5274 32.2779 42.9867 32.0972 42.3476 32.0916C42.3476 32.0916 42.3402 32.0903 42.3339 32.0903C42.3277 32.0903 42.3221 32.091 42.3165 32.0916H42.3115C42.2921 32.0916 42.2791 32.0922 42.2698 32.0922C42.2623 32.0922 42.2504 32.0916 42.2361 32.0916H42.2268C42.2218 32.0916 42.2156 32.0903 42.2081 32.0903H42.2025C42.1987 32.0903 42.1944 32.0903 42.19 32.0916C41.5522 32.0985 41.0152 32.2784 40.6185 32.6215H40.6166L40.5805 32.654C40.1588 33.0359 39.9252 33.602 39.9221 34.2719V34.2756L39.9184 37.7446C39.9184 37.7902 39.9376 37.8358 39.9725 37.8683C40.0074 37.9014 40.0548 37.9201 40.104 37.9201H40.7194C40.7673 37.9201 40.8153 37.9014 40.8502 37.8683C40.8851 37.8358 40.9044 37.7902 40.9044 37.7446L40.9056 34.3925C40.9094 33.9014 41.0345 33.5533 41.2607 33.3233C41.4793 33.1002 41.8138 32.9746 42.2735 32.9658C42.7288 32.9746 43.0627 33.1002 43.2819 33.3233C43.5075 33.5533 43.6327 33.9014 43.6364 34.3932L43.6357 37.7446C43.6357 37.7902 43.6557 37.8358 43.69 37.8683C43.7248 37.9014 43.7728 37.9201 43.8214 37.9201H44.4374C44.486 37.9201 44.534 37.9014 44.5682 37.8683C44.6037 37.8358 44.623 37.7902 44.623 37.7446L44.6199 34.28Z" fill="#D6006D"/>
<path d="M33.2959 32.6796C33.2928 32.6752 33.289 32.6715 33.2847 32.6671C32.9346 32.3434 32.374 32.1422 31.725 32.1415C31.7156 32.1403 31.7025 32.1403 31.6894 32.1403C31.1556 32.1403 30.6287 32.2521 30.1708 32.6452L30.1714 30.5524C30.1714 30.5062 30.1521 30.4611 30.1173 30.4286C30.083 30.3961 30.035 30.3768 29.9858 30.3768H29.3797C29.3312 30.3768 29.2838 30.3961 29.2483 30.4286C29.2134 30.4611 29.1947 30.5062 29.1947 30.5524V37.7501C29.1947 37.7958 29.214 37.8414 29.2483 37.8732C29.2832 37.9064 29.3312 37.9251 29.3797 37.9251H29.9864C30.035 37.9251 30.0823 37.9064 30.1173 37.8732C30.1527 37.8414 30.1714 37.7958 30.1714 37.7501V37.3902C30.5763 37.8445 31.1569 38.0007 31.6894 38.0001H31.7274C32.3746 37.9989 32.9352 37.7976 33.2847 37.474C33.9381 36.8534 34.0875 35.9023 34.0894 35.018C34.0875 34.1388 33.9381 33.2977 33.2959 32.6796ZM33.114 35.0443C33.1121 35.5967 33.0536 36.1366 32.8443 36.5228C32.6387 36.894 32.308 37.1421 31.6645 37.1527C31.6608 37.1521 31.6539 37.1521 31.6408 37.1527H31.6303C30.983 37.1458 30.648 36.8972 30.4405 36.5222C30.23 36.1347 30.1708 35.5904 30.1708 35.0343V35.0011C30.1708 34.4481 30.23 34.0056 30.4405 33.6189C30.648 33.2439 30.983 32.9952 31.6303 32.989H31.6552C32.3024 32.9952 32.6369 33.2439 32.8449 33.6201C33.0548 34.0056 33.114 34.4481 33.114 35.0011V35.0443Z" fill="#D6006D"/>
<path d="M17.7759 34.0194C17.7759 33.4308 17.5809 32.9264 17.1723 32.5896C16.76 32.2503 16.1695 32.0909 15.4077 32.0904H15.3702C14.5711 32.0878 13.937 32.2628 13.4536 32.7783L13.4518 32.7771L13.4237 32.8096C13.3876 32.8502 13.3521 32.8921 13.3178 32.9358L13.3166 32.9377L13.2674 32.9965C13.2375 33.0314 13.2231 33.0783 13.2294 33.1265C13.235 33.1745 13.2587 33.2202 13.2954 33.2521L13.3235 33.2758C13.3341 33.2889 13.3459 33.3008 13.359 33.312L13.4674 33.4008L13.7545 33.6501C13.7912 33.6826 13.8398 33.7001 13.8872 33.6976C13.9339 33.6957 13.9781 33.6745 14.0068 33.6389L14.1918 33.4189C14.307 33.2939 14.4247 33.2052 14.5674 33.1421C14.7692 33.0533 15.0277 33.0121 15.4014 33.0083H15.4064L15.4189 33.0077C15.9502 33.0096 16.2809 33.117 16.4709 33.2845C16.6597 33.4483 16.7556 33.6964 16.7568 34.0819C16.7568 34.0819 16.7568 34.0913 16.7575 34.1V34.4631H15.179C14.5418 34.465 14.0093 34.6094 13.6249 34.9106C13.2431 35.2043 13.0301 35.6574 13.0301 36.1848V36.2047C13.0313 36.6441 13.1958 37.0753 13.4947 37.3752C13.899 37.7746 14.4372 37.9201 15.2507 37.9201H15.6718C16.4167 37.9201 16.9506 37.7358 17.295 37.3633C17.6382 36.9915 17.7759 36.4528 17.7759 35.783V34.0194ZM16.7575 35.811C16.7562 36.2754 16.6547 36.5316 16.5189 36.6516C16.1906 36.9546 15.7851 37.0003 15.2905 37.0015H15.2756C14.7991 37.0022 14.4864 36.9191 14.3089 36.7903C14.1401 36.6678 14.0535 36.4934 14.0491 36.1923V36.1785C14.0522 35.8804 14.1425 35.6942 14.3132 35.563C14.4914 35.4267 14.7922 35.338 15.2413 35.338H16.7575V35.811Z" fill="#D6006D"/>
<path d="M39.2393 34.0284V34.0241C39.2399 33.4367 39.0443 32.933 38.6357 32.5961C38.2246 32.2568 37.6328 32.0975 36.8723 32.0968H36.8343C36.0351 32.095 35.4004 32.2693 34.9176 32.7849L34.9158 32.783L34.8878 32.8161C34.8516 32.8561 34.8162 32.898 34.7812 32.9424L34.7314 33.0023C34.7015 33.0373 34.6872 33.0849 34.6934 33.1323C34.6984 33.1798 34.7221 33.226 34.7595 33.2579L34.7869 33.2823C34.7981 33.2948 34.8099 33.3067 34.823 33.3179L34.9307 33.4073L35.2179 33.6566C35.2553 33.6885 35.3038 33.7054 35.3506 33.7035C35.3973 33.7016 35.4409 33.6798 35.4708 33.6448L35.6552 33.4248C35.7704 33.2998 35.8888 33.2111 36.0314 33.148C36.2332 33.0592 36.4917 33.018 36.8654 33.0148L36.8698 33.0142H36.8829C37.4142 33.0148 37.7449 33.1236 37.9343 33.2904C38.123 33.4542 38.219 33.7023 38.2209 34.0872C38.2209 34.0872 38.2209 34.0972 38.2215 34.1053V34.469H36.6425C36.0059 34.4703 35.4733 34.6147 35.0883 34.9152C34.7071 35.2089 34.4941 35.662 34.4935 36.1894L34.4941 36.2094C34.4947 36.6487 34.6592 37.0793 34.9582 37.3786C35.3624 37.7779 35.9012 37.9229 36.7141 37.9229H37.1351C37.8801 37.9236 38.4146 37.7392 38.7584 37.3668C39.1023 36.9949 39.2399 36.4569 39.2399 35.7882V34.0384L39.2393 34.0284ZM35.5132 36.1963V36.1826C35.5162 35.8845 35.6066 35.6989 35.7766 35.5676C35.9548 35.4308 36.2556 35.3426 36.7054 35.3426H38.2215V35.8157C38.2202 36.2794 38.1187 36.535 37.9829 36.6549C37.6547 36.9587 37.2491 37.0037 36.754 37.0049H36.7396C36.2631 37.0056 35.9505 36.923 35.7729 36.7937C35.6041 36.6718 35.5169 36.4969 35.5132 36.1963Z" fill="#D6006D"/>
<path d="M8.28937 32.1063H7.24977L7.24788 30.5372C7.24788 30.4453 7.16817 30.3703 7.06916 30.3703H6.44377C6.39704 30.3703 6.35031 30.3885 6.31733 30.4191C6.28369 30.4503 6.26434 30.4934 6.26434 30.5372L6.26499 36.437C6.26499 36.8394 6.38082 37.2025 6.635 37.4768C6.87728 37.7424 7.26971 37.9087 7.72316 37.9087H8.02591V37.9043H8.28937C8.33486 37.9043 8.3797 37.8849 8.41145 37.8493C8.44449 37.8149 8.46254 37.7668 8.46254 37.7174V37.1044C8.46254 37.0556 8.44449 37.0069 8.41145 36.9719C8.3797 36.9363 8.33486 36.9169 8.28937 36.9169H7.806C7.70823 36.9132 7.62976 36.9019 7.5612 36.8775C7.51759 36.8619 7.4908 36.845 7.46526 36.8294C7.43788 36.81 7.42295 36.8007 7.39551 36.7719C7.3027 36.6744 7.25101 36.5195 7.24977 36.2895V33.0943H8.28937C8.33486 33.0943 8.3797 33.0737 8.41145 33.0393C8.44449 33.0043 8.46254 32.9556 8.46254 32.9062V32.2938C8.46254 32.2451 8.44449 32.1963 8.41145 32.1613C8.3797 32.1257 8.33486 32.1063 8.28937 32.1063Z" fill="#D6006D"/>
<path d="M12.7749 32.8358L12.7176 32.7715C12.7151 32.764 12.7107 32.7572 12.7033 32.7496L12.669 32.714L12.621 32.664L12.5812 32.6203L12.58 32.6215C12.2261 32.2478 11.7858 32.091 11.3167 32.0903C11.3074 32.0903 11.2962 32.0903 11.2806 32.091C10.9473 32.091 10.5543 32.2409 10.3188 32.5253L10.1557 32.719V32.2866C10.1557 32.2403 10.1363 32.1953 10.1014 32.1628C10.0672 32.1303 10.0192 32.111 9.97063 32.111H9.36459C9.31538 32.111 9.268 32.1303 9.23313 32.1628C9.19826 32.1953 9.17896 32.2403 9.17896 32.2866V37.7465C9.17896 37.7927 9.19826 37.8377 9.23313 37.8702C9.26741 37.9027 9.31538 37.922 9.36459 37.922H9.46861L9.47918 37.9227H9.861L9.87097 37.922H9.97063C10.0192 37.922 10.0666 37.9027 10.1014 37.8702C10.137 37.8377 10.1557 37.7927 10.1557 37.7465V37.652L10.1563 37.6483V34.4094C10.1563 34.405 10.1557 34.4007 10.1557 34.3969V34.1344C10.1743 33.8332 10.2697 33.5626 10.426 33.3652C10.5929 33.1552 10.8383 33.0183 11.1691 33.0177C11.3441 33.0177 11.4594 33.0383 11.5584 33.0802C11.655 33.1221 11.7527 33.1946 11.8817 33.3277L11.911 33.3571L12.0424 33.5045C12.0735 33.5395 12.119 33.5601 12.1663 33.5607C12.2143 33.5614 12.2629 33.5426 12.299 33.5095L12.7537 33.0946C12.7898 33.0608 12.8129 33.0146 12.8173 32.9658C12.8216 32.9178 12.8054 32.8709 12.7749 32.8358Z" fill="#D6006D"/>
<path d="M28.0494 34.9257L28.0425 34.9207C27.6887 34.6726 27.2389 34.5864 26.7562 34.5451L25.8518 34.4689C25.475 34.4371 25.242 34.3583 25.1062 34.2514C24.9915 34.1633 24.9206 34.0214 24.9181 33.804V33.7871C24.9206 33.5296 25.0202 33.3422 25.1971 33.2147C25.3871 33.0779 25.6898 32.9904 26.119 32.9904H26.1228C26.6703 32.991 27.1237 33.1191 27.5012 33.3628L27.7298 33.5253C27.7666 33.5509 27.8133 33.5603 27.8581 33.5497C27.9042 33.5403 27.9459 33.5115 27.9727 33.4722L28.311 32.9779C28.3384 32.9379 28.3496 32.8885 28.3434 32.8416C28.3396 32.816 28.3303 32.7923 28.3159 32.771C28.3035 32.7473 28.2854 32.7254 28.2624 32.7091L28.2231 32.681C27.6837 32.2955 26.9319 32.0786 26.1209 32.0773C25.4712 32.0773 24.9174 32.2342 24.5157 32.5342C24.117 32.8291 23.8822 33.2753 23.8822 33.7828V33.8065C23.8822 34.2552 24.0473 34.652 24.3787 34.9226C24.7132 35.197 25.1834 35.3432 25.7764 35.3913L26.7064 35.4669C27.0478 35.4981 27.2601 35.5737 27.386 35.6794C27.495 35.7681 27.5654 35.9093 27.566 36.135V36.1493C27.5635 36.433 27.4495 36.6292 27.2365 36.7649C27.0085 36.9104 26.6366 36.9992 26.1209 36.9992H26.1172C26.1172 36.9992 26.1121 36.9992 26.1078 36.9998H26.1028C25.422 36.9967 24.9374 36.8429 24.5612 36.5311L24.365 36.3643C24.3295 36.3343 24.2827 36.3199 24.236 36.3268C24.1887 36.3324 24.1438 36.358 24.1127 36.3955L23.7234 36.8679C23.6916 36.9055 23.6754 36.9554 23.6779 37.0035C23.6804 37.051 23.7022 37.0954 23.737 37.1254L23.9221 37.2823C23.9252 37.2854 23.9289 37.2885 23.9321 37.291L23.9563 37.311L23.9582 37.3092C24.53 37.7247 25.2432 37.9234 26.1172 37.9234H26.1327C26.8534 37.9228 27.4613 37.766 27.9048 37.4591C28.3427 37.1554 28.6044 36.6886 28.6037 36.1493V36.1224C28.6044 35.5788 28.3944 35.1682 28.0494 34.9257Z" fill="#D6006D"/>
<path d="M50.3722 37.675L49.6134 36.6008L48.0936 34.3743L49.2752 33.1156L49.9629 32.3864L50.0046 32.3395C50.0838 32.2589 50.0451 32.1758 50.0109 32.1439C49.976 32.1114 49.928 32.092 49.8794 32.092H49.089C49.0429 32.092 48.9819 32.1283 48.947 32.1589L46.2953 34.9966V30.5329C46.2953 30.4866 46.2747 30.4411 46.2411 30.4092C46.2062 30.3761 46.1576 30.3573 46.1091 30.3573H45.503C45.4544 30.3573 45.4071 30.3761 45.3722 30.4092C45.3367 30.4411 45.3174 30.4866 45.3174 30.5329V37.7431C45.3174 37.7894 45.3373 37.835 45.3716 37.8675C45.4064 37.9 45.4544 37.9194 45.5036 37.9194H46.1097C46.1576 37.9194 46.2056 37.9 46.2411 37.8675C46.276 37.835 46.2953 37.7894 46.2953 37.7431V36.2877L47.4439 35.0385L48.2176 36.1996H48.2138L49.3008 37.8294C49.3263 37.865 49.3662 37.9225 49.4577 37.9225H50.247C50.2955 37.9225 50.3441 37.9038 50.3784 37.8706C50.4126 37.8388 50.4357 37.755 50.3722 37.675Z" fill="#D6006D"/>
<path d="M43.5835 30.4092H43.6906L43.8494 30.8792L44.0089 30.4092H44.1148V30.9654H44.0438V30.6361C44.0438 30.6248 44.0438 30.6074 44.0438 30.5798C44.0438 30.5536 44.0456 30.5267 44.0456 30.4961L43.8868 30.9654H43.812L43.6533 30.4961V30.5742C43.6545 30.6042 43.6545 30.6242 43.6545 30.6361V30.9654H43.5835V30.4092Z" fill="#D6006D"/>
<path d="M44.4342 30.4092H44.6871C44.7288 30.4092 44.7638 30.4155 44.7893 30.428C44.841 30.4505 44.8659 30.4942 44.8659 30.5586C44.8659 30.5917 44.8609 30.6192 44.8466 30.6404C44.8316 30.661 44.8123 30.6798 44.7874 30.6923C44.8092 30.7017 44.8273 30.7123 44.8379 30.7267C44.8479 30.7411 44.854 30.7655 44.854 30.7973L44.8584 30.871C44.8584 30.8929 44.8609 30.9085 44.8628 30.9192C44.8684 30.936 44.8759 30.9473 44.8877 30.9517V30.9654H44.7955C44.793 30.9598 44.7924 30.9542 44.7893 30.9473C44.7874 30.9391 44.7868 30.9248 44.7862 30.9029L44.7818 30.8098C44.7787 30.7729 44.7668 30.7485 44.7419 30.7367C44.7288 30.7298 44.7052 30.7267 44.6759 30.7267H44.509V30.9654H44.4342V30.4092ZM44.679 30.6636C44.7127 30.6636 44.7401 30.6573 44.7606 30.6423C44.7793 30.6298 44.7905 30.6042 44.7905 30.5654C44.7905 30.5267 44.7768 30.4992 44.7482 30.4849C44.7326 30.4774 44.7127 30.4736 44.6884 30.4736H44.509V30.6636H44.679Z" fill="#D6006D"/>
<path d="M45.0366 30.9632C45.0146 30.9632 44.9987 30.9473 44.9987 30.9234C44.9987 30.8996 45.0146 30.883 45.0371 30.883C45.0603 30.883 45.0743 30.8996 45.0743 30.9234C45.0743 30.9473 45.0603 30.9632 45.0366 30.9632Z" fill="#D6006D"/>
<path d="M44.2771 30.9632C44.2564 30.9632 44.2417 30.9473 44.2417 30.9234C44.2417 30.8996 44.2564 30.883 44.279 30.883C44.3009 30.883 44.3162 30.8996 44.3162 30.9234C44.3162 30.9473 44.3009 30.9632 44.2771 30.9632Z" fill="#D6006D"/>
<path d="M51.4883 37.9403C51.8191 37.9403 52.0869 37.6697 52.0869 37.336C52.0869 37.0023 51.8191 36.7311 51.4883 36.7311C51.1589 36.7311 50.891 37.0023 50.891 37.336C50.891 37.6697 51.1589 37.9403 51.4883 37.9403Z" fill="#69246F"/>
</svg>
