<svg width="160" height="39" viewBox="0 0 160 39" fill="none" xmlns="http://www.w3.org/2000/svg">
<path d="M5.24306 33.4931C5.5781 33.4931 5.84976 33.2206 5.84976 32.8842C5.84976 32.548 5.57795 32.2748 5.24306 32.2748C4.90896 32.2748 4.63715 32.5478 4.63715 32.8842C4.63715 33.2206 4.90896 33.4931 5.24306 33.4931Z" fill="#009FE3"/>
<path d="M52.1953 38.2635C52.5304 38.2635 52.802 37.991 52.802 37.6549C52.802 37.3183 52.5302 37.0453 52.1953 37.0453C51.8609 37.0453 51.5897 37.3183 51.5897 37.6549C51.5897 37.991 51.8609 38.2635 52.1953 38.2635Z" fill="#6B1A6B"/>
<path d="M23.4742 34.5757L23.474 34.5736C23.4726 33.8949 23.2363 33.3223 22.8072 32.9354L22.777 32.9085L22.7701 32.9022H22.7687C22.3651 32.5567 21.8187 32.3745 21.1705 32.3684C21.1681 32.3679 21.1626 32.3676 21.1564 32.3676C21.1505 32.3676 21.1442 32.3678 21.1383 32.3685L21.1336 32.3684C21.1141 32.3684 21.1011 32.3689 21.0914 32.3693C21.0839 32.3689 21.0717 32.3684 21.0574 32.3684L21.0477 32.3685C21.0427 32.3681 21.0364 32.3676 21.0286 32.3676H21.0263C21.0271 32.3676 21.0252 32.3676 21.023 32.3676C21.0197 32.3676 21.0152 32.3676 21.0103 32.3684C20.3638 32.3754 19.8193 32.557 19.4167 32.9022H19.4149L19.378 32.9354C18.9506 33.3205 18.7143 33.8905 18.7112 34.5656L18.711 34.5664L18.7104 34.569L18.7071 38.0643C18.7071 38.111 18.7269 38.157 18.7621 38.1895C18.7969 38.2227 18.846 38.2418 18.8952 38.2418H19.5192C19.5683 38.2418 19.6167 38.2225 19.6521 38.1895C19.6874 38.1571 19.7071 38.1112 19.7071 38.0643L19.7085 34.6871C19.7123 34.1922 19.8393 33.8415 20.0684 33.6097C20.2904 33.3853 20.629 33.2586 21.0955 33.2495C21.5574 33.2586 21.8956 33.3853 22.1175 33.6097C22.3464 33.8415 22.4734 34.1922 22.4774 34.688L22.4765 38.0643C22.4765 38.111 22.4965 38.157 22.5315 38.1895C22.5666 38.2227 22.6153 38.2418 22.6646 38.2418H23.2894C23.3386 38.2418 23.387 38.2225 23.4221 38.1895C23.4579 38.1571 23.4774 38.1112 23.4774 38.0643L23.4742 34.5757Z" fill="#D7006D"/>
<path d="M45.2314 34.5757L45.2312 34.5736C45.2298 33.8949 44.9937 33.3223 44.5644 32.9354L44.5343 32.9085L44.5274 32.9022H44.526C44.1223 32.5567 43.5758 32.3745 42.9277 32.3684C42.9252 32.3679 42.9199 32.3676 42.9136 32.3676C42.9077 32.3676 42.9014 32.3678 42.8955 32.3685L42.8908 32.3684C42.8713 32.3684 42.8583 32.3689 42.8486 32.3693C42.841 32.3689 42.829 32.3684 42.8146 32.3684L42.8049 32.3685C42.7999 32.3681 42.7938 32.3676 42.7859 32.3676H42.7835C42.7844 32.3676 42.7824 32.3676 42.7802 32.3676C42.7769 32.3676 42.7724 32.3676 42.7676 32.3684C42.121 32.3754 41.5765 32.557 41.174 32.9022H41.1719L41.1352 32.9354C40.7079 33.3205 40.4715 33.8905 40.4684 34.5656L40.4682 34.5664L40.4675 34.569L40.4642 38.0643C40.4642 38.111 40.4842 38.157 40.5192 38.1895C40.5541 38.2227 40.603 38.2418 40.6522 38.2418H41.2763C41.3255 38.2418 41.3738 38.2225 41.4092 38.1895C41.4445 38.1571 41.464 38.1112 41.464 38.0643L41.4654 34.6871C41.4692 34.1922 41.5962 33.8415 41.8253 33.6097C42.0473 33.3853 42.3861 33.2586 42.8526 33.2495C43.3144 33.2586 43.6526 33.3853 43.8746 33.6097C44.1034 33.8415 44.2304 34.1922 44.2345 34.688L44.2336 38.0643C44.2336 38.111 44.2536 38.157 44.2885 38.1895C44.3238 38.2227 44.3724 38.2418 44.4218 38.2418H45.0468C45.0958 38.2418 45.1444 38.2225 45.1795 38.1895C45.2153 38.1571 45.2347 38.1112 45.2347 38.0643L45.2314 34.5757Z" fill="#D7006D"/>
<path d="M33.565 35.3191V35.3316V35.333V35.3458C33.5634 35.9023 33.504 36.4463 33.2918 36.8357C33.0831 37.2102 32.7474 37.4601 32.0957 37.4701C32.0913 37.4696 32.0845 37.4696 32.0713 37.4701H32.0604C31.4043 37.4634 31.0643 37.213 30.8545 36.835C30.6403 36.4441 30.5805 35.8958 30.5805 35.3356V35.302C30.581 34.7454 30.6405 34.2991 30.8545 33.9099C31.0643 33.5319 31.4043 33.2809 32.0604 33.275H32.0649H32.0755H32.0855C32.7421 33.2809 33.081 33.5313 33.2924 33.9105C33.5051 34.2989 33.5648 34.7454 33.5648 35.302V35.3191H33.565ZM33.7496 32.9627C33.7463 32.9587 33.743 32.9546 33.7385 32.9506C33.3831 32.6239 32.8147 32.4214 32.1563 32.4206C32.1474 32.4195 32.1337 32.4195 32.1208 32.4195C31.5793 32.4194 31.0452 32.5321 30.581 32.9283L30.5805 32.9285V32.5809H30.5814V30.8197C30.5814 30.7733 30.5615 30.7275 30.5265 30.695C30.4915 30.6621 30.4427 30.6429 30.3934 30.6429H29.7784C29.7295 30.6429 29.6809 30.6621 29.6455 30.695C29.61 30.7274 29.5906 30.7731 29.5906 30.8197V32.5809H29.5911V36.32H29.5906V38.0719C29.5906 38.1183 29.6108 38.1641 29.6455 38.1963C29.6806 38.2295 29.7293 38.2483 29.7789 38.2483H30.3937C30.4429 38.2483 30.4913 38.2293 30.5266 38.1963C30.5622 38.1641 30.5818 38.1183 30.5818 38.0719V37.7098C30.9921 38.1672 31.5808 38.3248 32.121 38.3246H32.1591C32.8161 38.3224 33.3844 38.1201 33.7387 37.7937C34.4011 37.1686 34.5525 36.2102 34.5547 35.3194C34.5525 34.4333 34.4008 33.5855 33.7496 32.9627Z" fill="#D7006D"/>
<path d="M16.9791 36.1167C16.9777 36.5843 16.8751 36.8426 16.7372 36.963C16.4046 37.2689 15.9928 37.3149 15.4913 37.3159H15.4858H15.4764C14.9934 37.3165 14.676 37.2329 14.4961 37.103C14.3252 36.9798 14.2369 36.8037 14.2327 36.5006V36.4868C14.236 36.186 14.3275 35.9984 14.5003 35.8662C14.6812 35.729 14.9856 35.6399 15.4416 35.6399H15.4455H16.9787V36.1167H16.9791ZM18.0115 34.3149V34.3109C18.0116 33.7181 17.8139 33.2101 17.3995 32.8705C16.9818 32.5285 16.3826 32.3678 15.6109 32.3676H15.5831H15.5726C14.7626 32.3653 14.119 32.5411 13.6291 33.0608L13.6273 33.0589L13.5992 33.0923C13.5624 33.1331 13.5262 33.175 13.4914 33.2198C13.4914 33.2198 13.4907 33.2207 13.4904 33.2212L13.4403 33.2805C13.4103 33.3159 13.3956 33.3635 13.4017 33.4114C13.4069 33.4598 13.4314 33.5059 13.4687 33.5378L13.497 33.5623C13.5079 33.5752 13.5198 33.5873 13.5331 33.5984L13.6427 33.6879L13.9342 33.9394C13.9715 33.9718 14.0207 33.9893 14.0685 33.9868C14.1159 33.9849 14.1604 33.9634 14.1902 33.9278L14.3775 33.7062H14.3774C14.4939 33.5799 14.6139 33.4903 14.7587 33.4272C14.9631 33.3377 15.2256 33.296 15.6045 33.2924H15.609L15.622 33.2916C16.1611 33.293 16.4964 33.4023 16.6886 33.5704C16.8802 33.7357 16.9774 33.9855 16.9788 34.3739C16.9788 34.3766 16.9788 34.3834 16.9794 34.3922V34.7586H15.3788C14.733 34.76 14.1929 34.9055 13.8032 35.2087C13.4159 35.5052 13.2 35.9615 13.1999 36.4931L13.2 36.5132C13.2011 36.9561 13.368 37.3905 13.6713 37.6923C14.0812 38.0949 14.6268 38.2411 15.4514 38.2411H15.4608H15.8787C16.6337 38.2419 17.1756 38.0558 17.5246 37.6806C17.8728 37.3054 18.0124 36.7629 18.0124 36.0882V34.3249L18.0115 34.3149Z" fill="#D7006D"/>
<path d="M35.9963 36.5082V36.4945C35.9994 36.1941 36.0911 36.0066 36.264 35.8745C36.4449 35.737 36.7493 35.6481 37.2053 35.6481H37.2093H38.7425V36.1245C38.7411 36.5917 38.6383 36.8499 38.5005 36.9704C38.168 37.276 37.7562 37.3219 37.2545 37.3232H37.249H37.24C36.7567 37.3236 36.4396 37.2401 36.2598 37.1101C36.0886 36.9871 36.0006 36.8113 35.9963 36.5082ZM39.7749 34.3239V34.3198C39.775 33.7274 39.5773 33.2198 39.1625 32.8804C38.7453 32.5387 38.1458 32.378 37.3746 32.3777H37.3465H37.336C36.5256 32.3755 35.8825 32.5512 35.3928 33.0704L35.3908 33.0687L35.3627 33.102C35.3258 33.1425 35.2897 33.1847 35.2544 33.2293C35.2543 33.2297 35.254 33.2302 35.2538 33.2307L35.2037 33.2898C35.1737 33.3252 35.1588 33.3728 35.1651 33.4206C35.1704 33.4688 35.1948 33.515 35.2321 33.5471L35.2604 33.5716C35.2713 33.5843 35.2832 33.5965 35.2965 33.6075L35.4061 33.6971L35.6976 33.9483C35.7349 33.9805 35.7841 33.9979 35.8316 33.9956C35.8791 33.9937 35.9235 33.9721 35.9535 33.9366L36.1406 33.7153V33.7151C36.2574 33.589 36.3771 33.4994 36.5219 33.4364C36.7264 33.347 36.9886 33.3051 37.3676 33.3018L37.3721 33.3017L37.3849 33.3012C37.924 33.3024 38.2595 33.4119 38.4515 33.5797C38.6431 33.7449 38.74 33.9947 38.7417 34.3828C38.7417 34.3854 38.7417 34.3923 38.7425 34.401V34.7671H37.1417C36.4958 34.7685 35.9558 34.9138 35.5659 35.217C35.1787 35.5132 34.963 35.9695 34.9626 36.5007L34.9628 36.5208C34.9637 36.9636 35.1306 37.3974 35.4339 37.6989C35.8436 38.1013 36.3894 38.2476 37.214 38.2476H37.2232H37.6411C38.3963 38.2482 38.9381 38.0623 39.287 37.6873C39.6352 37.3126 39.7749 36.7705 39.7749 36.0961V34.3337V34.3239Z" fill="#D7006D"/>
<path d="M8.39355 32.3898H7.33917L7.3387 31.3243H7.33823L7.33792 30.8085C7.33792 30.716 7.25669 30.6404 7.15625 30.6404H6.52237C6.47457 30.6404 6.42756 30.6582 6.39428 30.6895C6.36023 30.721 6.34039 30.7646 6.34039 30.8085V31.7586H6.34086V36.7533C6.34133 37.1589 6.45848 37.5241 6.71622 37.801C6.96178 38.0689 7.35963 38.236 7.81934 38.236H7.82091H8.12644V38.2322H8.39355C8.43995 38.2322 8.4854 38.212 8.51774 38.1771C8.5507 38.1419 8.5696 38.0932 8.5696 38.0435V37.4262C8.5696 37.377 8.55085 37.3281 8.51774 37.2929C8.4854 37.2572 8.43995 37.2377 8.39355 37.2377H7.90354C7.80435 37.234 7.72468 37.2219 7.65533 37.1974C7.61112 37.1821 7.58379 37.1652 7.55833 37.149C7.53021 37.1293 7.5149 37.1198 7.48725 37.0912C7.3929 36.9929 7.34058 36.8372 7.33917 36.6052V33.3852H8.39355C8.43995 33.3852 8.4854 33.3651 8.51774 33.3299C8.5507 33.2946 8.5696 33.2458 8.5696 33.1963V32.5788C8.5696 32.5295 8.55085 32.4809 8.51774 32.4454C8.4854 32.4094 8.43995 32.3898 8.39355 32.3898Z" fill="#D7006D"/>
<path d="M12.941 33.119L12.8824 33.0541C12.8801 33.0465 12.8758 33.0394 12.8687 33.032L12.8332 32.9957L12.8334 32.9955L12.7846 32.9455L12.7446 32.9013L12.7431 32.903C12.3844 32.5266 11.938 32.3681 11.4625 32.3676C11.4528 32.3676 11.4414 32.3679 11.4252 32.3681C11.0876 32.3681 10.6893 32.5193 10.45 32.8062L10.2853 33.0011V32.9197V32.5652C10.2853 32.5188 10.2653 32.473 10.2304 32.4408C10.1952 32.4076 10.1465 32.3886 10.097 32.3886H9.48244C9.43308 32.3886 9.3845 32.4076 9.34936 32.4408C9.3139 32.473 9.29437 32.5187 9.29437 32.5652V32.9197V38.0668C9.29437 38.1135 9.31437 38.159 9.34936 38.1914C9.38435 38.2246 9.43308 38.2436 9.48244 38.2436H9.58851C9.59179 38.2437 9.59538 38.2445 9.59866 38.2445H9.98589C9.98949 38.2445 9.99277 38.2437 9.99636 38.2436H10.0973C10.1465 38.2436 10.1949 38.2246 10.2304 38.1914C10.2658 38.159 10.2853 38.1135 10.2853 38.0668V37.9715C10.2853 37.9702 10.2855 37.9692 10.2855 37.9679V34.7041C10.2855 34.6997 10.2853 34.6958 10.2853 34.6915V34.4272C10.3039 34.1238 10.4003 33.8507 10.5587 33.6523C10.7283 33.4405 10.977 33.3029 11.3125 33.302C11.49 33.302 11.6068 33.323 11.7079 33.3651C11.8054 33.4074 11.9047 33.48 12.0351 33.6141L12.0647 33.6445L12.1982 33.7929C12.2296 33.8281 12.2755 33.8485 12.3237 33.8491C12.3722 33.85 12.4213 33.831 12.4585 33.7974L12.9191 33.3793C12.9558 33.3458 12.9794 33.2987 12.9835 33.2495C12.9885 33.2014 12.9724 33.1539 12.941 33.119Z" fill="#D7006D"/>
<path d="M28.4291 35.2327C28.4266 35.2308 28.4238 35.2294 28.4217 35.2277H28.421C28.0622 34.9779 27.6076 34.8908 27.1182 34.8493L26.2007 34.7722C25.8189 34.7402 25.5824 34.661 25.4451 34.5534C25.3286 34.4648 25.2564 34.3219 25.2542 34.1022V34.0972H25.2536L25.2542 34.0857C25.2564 33.8258 25.3576 33.6369 25.5376 33.5087C25.7295 33.3707 26.037 33.2829 26.472 33.2824H26.4756H26.4762C27.0312 33.2834 27.4903 33.4125 27.8731 33.6577L27.8727 33.6585L28.1054 33.8213C28.1426 33.8473 28.1901 33.8569 28.2357 33.8463C28.2821 33.8364 28.3241 33.8077 28.3516 33.768L28.6943 33.2698C28.722 33.2298 28.7338 33.1795 28.7271 33.1328C28.7235 33.1069 28.7135 33.0828 28.6993 33.0616C28.6867 33.0375 28.6685 33.0157 28.6448 32.9988L28.6054 32.9707C28.0586 32.5819 27.2957 32.3639 26.4735 32.3627C25.8151 32.363 25.2534 32.5207 24.8457 32.823C24.4415 33.1202 24.2037 33.5694 24.2034 34.0809L24.2037 34.088V34.0913L24.2034 34.105C24.2034 34.5571 24.3715 34.9567 24.7072 35.2291C25.0461 35.5057 25.5235 35.653 26.1246 35.7014L27.0676 35.7774C27.4133 35.809 27.6293 35.8855 27.7565 35.9917C27.8675 36.0816 27.9384 36.2239 27.9391 36.451V36.4633V36.4651C27.9364 36.7514 27.8208 36.9488 27.6051 37.0857C27.3736 37.2321 26.997 37.3218 26.4735 37.3218H26.47C26.4681 37.3218 26.4646 37.322 26.4603 37.3224H26.4556C25.7652 37.3192 25.2742 37.1644 24.8921 36.8496L24.6933 36.6819C24.6575 36.6517 24.6103 36.6375 24.5625 36.6439C24.5147 36.6501 24.4691 36.6752 24.4376 36.7134L24.0427 37.1893C24.0108 37.2274 23.9943 37.2774 23.9971 37.3257C23.9993 37.3737 24.0213 37.4187 24.0569 37.4484L24.2442 37.6065L24.2434 37.6074C24.2472 37.6102 24.2511 37.6126 24.2547 37.6155L24.2792 37.6359L24.2809 37.6341C24.8606 38.0525 25.5843 38.2528 26.4701 38.2528H26.4859C27.2163 38.252 27.8327 38.0941 28.2824 37.7848C28.727 37.4796 28.992 37.0085 28.9913 36.465V36.4379C28.9919 35.8906 28.779 35.4775 28.4291 35.2327Z" fill="#D7006D"/>
<path d="M51.0644 37.9968L50.2952 36.9144L48.7539 34.6706L49.9517 33.4022L50.6492 32.6673L50.6915 32.6204C50.7721 32.5396 50.7326 32.4555 50.6978 32.4233C50.6628 32.3901 50.614 32.3709 50.5647 32.3709H49.764C49.7163 32.3709 49.6546 32.4077 49.6196 32.4387C49.6188 32.4388 49.6202 32.4384 49.6196 32.4387L46.9304 35.2981V32.9085V30.7997C46.9304 30.7533 46.9102 30.7075 46.8754 30.6752C46.8403 30.642 46.7915 30.623 46.742 30.623H46.1273C46.0781 30.623 46.0296 30.642 45.9944 30.6752C45.9588 30.7075 45.9393 30.7533 45.9393 30.7997V32.9085V38.0653C45.9393 38.1117 45.9591 38.1578 45.9943 38.1902C46.0294 38.223 46.0781 38.2424 46.1277 38.2424H46.7423C46.7915 38.2424 46.84 38.223 46.8754 38.1902C46.9109 38.1578 46.9304 38.1117 46.9304 38.0653V36.5986L48.0954 35.3398L48.8794 36.5095H48.8761L49.9783 38.1519C50.0042 38.1883 50.0448 38.2463 50.1368 38.2463H50.9375C50.987 38.2463 51.0358 38.2269 51.0708 38.1939C51.1056 38.1615 51.1286 38.0776 51.0644 37.9968Z" fill="#D7006D"/>
<path d="M44.1798 30.6782H44.2883L44.4497 31.1519L44.6113 30.6782H44.7184V31.2386H44.6463V30.9071C44.6463 30.8956 44.6468 30.878 44.6468 30.8506C44.6468 30.8241 44.6485 30.797 44.6485 30.766L44.4874 31.2388H44.4117L44.2508 30.766V30.7825V30.8448C44.2521 30.8744 44.2521 30.8946 44.2521 30.9071V31.2386H44.1801V30.6782H44.1798Z" fill="#D7006D"/>
<path d="M45.2916 30.9345C45.3258 30.9345 45.3536 30.9278 45.3748 30.9133C45.3934 30.9002 45.4048 30.8744 45.4048 30.8358C45.4048 30.7968 45.3912 30.769 45.3617 30.7543C45.3462 30.7464 45.3259 30.7429 45.3014 30.7429H45.1194V30.9345H45.2916ZM45.0435 30.6782H45.3C45.3422 30.6782 45.3775 30.6841 45.4037 30.6968C45.4558 30.7199 45.4814 30.764 45.4814 30.8286C45.4814 30.8619 45.4757 30.8895 45.4613 30.9113C45.4463 30.9318 45.4271 30.9504 45.4017 30.9632C45.4238 30.9727 45.4418 30.9836 45.4527 30.998C45.4629 31.0125 45.4691 31.037 45.4691 31.0694L45.4733 31.1432C45.4733 31.1656 45.4761 31.1812 45.4783 31.1918C45.4835 31.2083 45.4913 31.22 45.5033 31.2246V31.2383H45.4101C45.4074 31.2324 45.4063 31.2267 45.4037 31.2198C45.4015 31.212 45.401 31.1972 45.4006 31.1754L45.3954 31.0815C45.3928 31.0443 45.3806 31.0197 45.3558 31.0075C45.3422 31.0008 45.3183 30.9976 45.2883 30.9976H45.1194V31.2382H45.0437V30.6782H45.0435Z" fill="#D7006D"/>
<path d="M44.8843 31.2374C44.8623 31.2374 44.8474 31.2211 44.8474 31.1962C44.8474 31.1714 44.863 31.1544 44.8868 31.1544C44.9092 31.1544 44.9253 31.1712 44.9253 31.1962C44.9251 31.2212 44.909 31.2374 44.8843 31.2374Z" fill="#D7006D"/>
<path d="M45.6539 31.2374C45.6314 31.2374 45.6148 31.2211 45.6148 31.1962C45.6148 31.1714 45.6314 31.1544 45.6549 31.1544C45.6785 31.1544 45.6941 31.1712 45.6941 31.1962C45.6941 31.2212 45.6787 31.2374 45.6546 31.2374H45.6539Z" fill="#D7006D"/>
<path d="M128.232 8.12102C128.005 7.8597 127.651 7.6887 127.218 7.6887C126.785 7.6887 126.42 7.85986 126.191 8.12102C125.884 8.46176 125.804 8.83661 125.804 10.3936C125.804 11.9508 125.884 12.3261 126.191 12.6669C126.42 12.9282 126.785 13.0985 127.218 13.0985C127.651 13.0985 128.005 12.928 128.232 12.6669C128.54 12.3261 128.631 11.9506 128.631 10.3936C128.631 8.83661 128.54 8.46192 128.232 8.12102ZM129.406 13.6212C128.836 14.1895 128.141 14.5078 127.218 14.5078C126.295 14.5078 125.587 14.1895 125.017 13.6212C124.197 12.8028 124.22 11.7915 124.22 10.3936C124.22 8.99577 124.197 7.98444 125.017 7.16607C125.587 6.59842 126.295 6.27948 127.218 6.27948C128.141 6.27948 128.836 6.59842 129.406 7.16607C130.227 7.98429 130.216 8.99577 130.216 10.3936C130.216 11.7916 130.227 12.8028 129.406 13.6212Z" fill="#D7006D"/>
<path d="M136.178 14.4388L132.963 9.47251V14.4388H131.379V6.34711H132.793L136.007 11.3022V6.34711H137.592V14.4388H136.178Z" fill="#D7006D"/>
<path d="M139.257 14.4388V6.34711H144.603V7.75633H140.841V9.65425H144.044V11.0635H140.841V13.0298H144.603V14.4388H139.257Z" fill="#D7006D"/>
<path d="M127.207 24.7295C126.317 24.7295 125.588 24.4118 125.018 23.8429C124.197 23.0253 124.221 22.0133 124.221 20.6161C124.221 19.2181 124.197 18.2061 125.018 17.3879C125.588 16.8196 126.317 16.502 127.207 16.502C128.722 16.502 129.908 17.3653 130.193 19.0589H128.586C128.426 18.4111 128.016 17.911 127.218 17.911C126.785 17.911 126.431 18.0702 126.203 18.3315C125.895 18.6724 125.804 19.0589 125.804 20.6161C125.804 22.1725 125.895 22.5592 126.203 22.8999C126.431 23.1612 126.785 23.3204 127.218 23.3204C128.016 23.3204 128.426 22.8205 128.586 22.1725H130.193C129.908 23.8659 128.712 24.7295 127.207 24.7295Z" fill="#D7006D"/>
<path d="M131.106 24.6615V16.5698H132.69V23.2517H135.591V24.6615H131.106Z" fill="#D7006D"/>
<path d="M138.297 16.5698H136.713V24.6615H138.297V16.5698Z" fill="#D7006D"/>
<path d="M142.917 24.7295C142.027 24.7295 141.298 24.4118 140.728 23.8429C139.907 23.0253 139.93 22.0133 139.93 20.6161C139.93 19.2181 139.907 18.2061 140.728 17.3879C141.298 16.8196 142.027 16.502 142.917 16.502C144.432 16.502 145.618 17.3653 145.903 19.0589H144.296C144.137 18.4111 143.726 17.911 142.928 17.911C142.495 17.911 142.142 18.0702 141.913 18.3315C141.605 18.6724 141.514 19.0589 141.514 20.6161C141.514 22.1725 141.605 22.5592 141.913 22.8999C142.142 23.1612 142.495 23.3204 142.928 23.3204C143.726 23.3204 144.136 22.8205 144.296 22.1725H145.903C145.618 23.8659 144.422 24.7295 142.917 24.7295Z" fill="#D7006D"/>
<path d="M151.556 24.6615L149.47 20.9797L148.421 22.2291V24.6615H146.836V16.5698H148.421V20.0925L151.282 16.5698H153.208L150.518 19.7862L153.402 24.6615H151.556Z" fill="#D7006D"/>
<path d="M5.2284 33.4642C5.56188 33.4642 5.83213 33.1929 5.83213 32.8583C5.83213 32.5242 5.56203 32.2523 5.2284 32.2523C4.89601 32.2523 4.62592 32.5242 4.62592 32.8583C4.62592 33.1929 4.89601 33.4642 5.2284 33.4642Z" fill="#009FE3"/>
<path d="M51.9508 38.2126C52.2843 38.2126 52.5545 37.9413 52.5545 37.6066C52.5545 37.272 52.2844 37.0001 51.9508 37.0001C51.6178 37.0001 51.3483 37.272 51.3483 37.6066C51.3483 37.9413 51.6178 38.2126 51.9508 38.2126Z" fill="#6A246F"/>
<path d="M23.3704 34.5424V34.5406C23.3685 33.8645 23.1334 33.2948 22.7067 32.9102L22.6765 32.8839L22.6696 32.8776H22.6684C22.2668 32.533 21.7224 32.352 21.0776 32.3463C21.0751 32.3457 21.0701 32.345 21.0639 32.345C21.0575 32.345 21.0518 32.3457 21.0456 32.3463H21.0411C21.0215 32.3463 21.0084 32.3469 20.999 32.3469C20.9915 32.3469 20.9795 32.3463 20.9651 32.3463H20.9558C20.9508 32.3463 20.9444 32.345 20.9369 32.345H20.9344H20.9312C20.9281 32.345 20.9231 32.345 20.9186 32.3463C20.275 32.3531 19.7333 32.5336 19.3329 32.8776H19.3311L19.2941 32.9102C18.8686 33.293 18.6341 33.8608 18.631 34.5325L18.6303 34.5331V34.5362L18.6266 38.0143C18.6266 38.0599 18.6467 38.1057 18.6813 38.1383C18.7159 38.1715 18.7644 38.1903 18.814 38.1903H19.4349C19.4832 38.1903 19.5318 38.1715 19.5669 38.1383C19.6022 38.1057 19.6216 38.0599 19.6216 38.0143L19.6229 34.6533C19.6266 34.1609 19.753 33.8119 19.981 33.5812C20.2016 33.3574 20.5392 33.2316 21.0029 33.2227C21.463 33.2316 21.7993 33.3574 22.0205 33.5812C22.2481 33.8117 22.3743 34.1609 22.3782 34.6539L22.3775 38.0143C22.3775 38.0599 22.3977 38.1057 22.4316 38.1383C22.4674 38.1715 22.5158 38.1903 22.5642 38.1903H23.1864C23.2354 38.1903 23.2838 38.1715 23.3184 38.1383C23.3541 38.1057 23.3737 38.0599 23.3737 38.0143L23.3704 34.5424Z" fill="#D7006D"/>
<path d="M45.0199 34.5424V34.5406C45.0186 33.8645 44.7835 33.2948 44.3562 32.9102L44.326 32.8839L44.3198 32.8776H44.3179C43.9163 32.533 43.3727 32.352 42.7279 32.3463C42.7254 32.3457 42.7196 32.345 42.714 32.345C42.7077 32.345 42.7021 32.3457 42.6957 32.3463H42.6907C42.6718 32.3463 42.6587 32.3469 42.6493 32.3469C42.6412 32.3469 42.6298 32.3463 42.6154 32.3463H42.6054C42.6009 32.3463 42.5948 32.345 42.5865 32.345H42.5845H42.5814C42.5776 32.345 42.5731 32.345 42.5682 32.3463C41.9253 32.3531 41.3836 32.5336 40.9826 32.8776H40.9807L40.9443 32.9102C40.5188 33.293 40.2837 33.8608 40.2806 34.5325V34.5331L40.28 34.5362L40.2762 38.0143C40.2762 38.0599 40.2964 38.1057 40.3309 38.1383C40.3662 38.1715 40.4146 38.1903 40.4637 38.1903H41.0846C41.133 38.1903 41.1815 38.1715 41.2166 38.1383C41.2519 38.1057 41.2713 38.0599 41.2713 38.0143L41.2725 34.6533C41.2769 34.1609 41.4033 33.8119 41.6307 33.5812C41.8519 33.3574 42.1888 33.2316 42.6532 33.2227C43.1126 33.2316 43.4489 33.3574 43.6701 33.5812C43.8982 33.8117 44.0239 34.1609 44.0283 34.6539L44.027 38.0143C44.027 38.0599 44.047 38.1057 44.0817 38.1383C44.1169 38.1715 44.1653 38.1903 44.2143 38.1903H44.8365C44.8855 38.1903 44.9333 38.1715 44.9685 38.1383C45.0038 38.1057 45.0232 38.0599 45.0232 38.0143L45.0199 34.5424Z" fill="#D7006D"/>
<path d="M33.5947 32.9394C33.5916 32.935 33.5885 32.9311 33.5841 32.9267C33.2303 32.6022 32.6647 32.4004 32.0097 32.3997C32.001 32.3985 31.9871 32.3985 31.9739 32.3985C31.4353 32.3985 30.9042 32.5106 30.4417 32.9048V32.5595H30.4423V30.8064C30.4423 30.76 30.423 30.7149 30.3883 30.6823C30.353 30.6498 30.3047 30.6303 30.2557 30.6303H29.6435C29.5951 30.6303 29.5467 30.6498 29.5109 30.6823C29.4756 30.7149 29.4568 30.76 29.4568 30.8064V32.5595V36.2801V38.0232C29.4568 38.0689 29.477 38.1147 29.5109 38.1466C29.546 38.1798 29.5951 38.1986 29.6441 38.1986H30.2557C30.3047 38.1986 30.3532 38.1798 30.3883 38.1466C30.4234 38.1147 30.4423 38.0689 30.4423 38.0232V37.6624C30.851 38.1179 31.4372 38.2746 31.9739 38.274H32.0124C32.6661 38.2727 33.2317 38.0709 33.5841 37.7464C34.2434 37.124 34.3936 36.1705 34.3961 35.2839C34.3942 34.4025 34.2433 33.559 33.5947 32.9394ZM33.4112 35.2841V35.2967V35.2973V35.3104C33.4099 35.8643 33.3507 36.4057 33.1395 36.7928C32.9316 37.165 32.5978 37.4137 31.9493 37.4245C31.9449 37.4238 31.938 37.4238 31.9247 37.4245H31.9141C31.2616 37.4176 30.923 37.1681 30.7143 36.7922C30.5014 36.4038 30.4416 35.8579 30.4416 35.3003V35.2671C30.4416 34.7125 30.5014 34.269 30.7143 33.8811C30.923 33.5051 31.2616 33.2558 31.9141 33.2494H31.9185H31.9297H31.9391C32.592 33.2558 32.9296 33.5051 33.1402 33.8823C33.352 34.2688 33.411 34.7125 33.411 35.2671V35.2841H33.4112Z" fill="#D7006D"/>
<path d="M17.9345 34.2831V34.2794C17.9345 33.6892 17.7384 33.1835 17.326 32.8457C16.9094 32.5055 16.3135 32.3457 15.5455 32.3451H15.5178H15.5072C14.7015 32.3426 14.061 32.5181 13.5734 33.035L13.5721 33.0337L13.5439 33.0663C13.5075 33.1069 13.4717 33.1489 13.437 33.1927C13.437 33.1927 13.4358 33.194 13.4358 33.1946L13.3855 33.2534C13.3559 33.2886 13.3408 33.3355 13.347 33.3838C13.3527 33.4321 13.3772 33.4779 13.4137 33.5098L13.442 33.5336C13.4528 33.5467 13.4647 33.5587 13.4778 33.5699L13.5871 33.659L13.8775 33.9089C13.9139 33.9415 13.9629 33.9591 14.0107 33.9566C14.0578 33.9547 14.1024 33.9334 14.1313 33.8977L14.318 33.677C14.4338 33.5517 14.5531 33.4627 14.6976 33.3995C14.9007 33.3106 15.1621 33.2692 15.5392 33.2654H15.5436L15.5562 33.2648C16.093 33.2667 16.4266 33.3744 16.6177 33.5423C16.8081 33.7065 16.9049 33.9552 16.9068 34.3419C16.9068 34.3444 16.9068 34.3514 16.9074 34.3601V34.7242H15.3141C14.6718 34.7261 14.1338 34.8707 13.7461 35.1727C13.3609 35.4672 13.146 35.9215 13.146 36.4503V36.4703C13.1472 36.9108 13.313 37.3431 13.6148 37.6439C14.0232 38.0442 14.5657 38.1902 15.3864 38.1902H15.396H15.8113C16.563 38.1902 17.1022 38.0053 17.4491 37.6319C17.7954 37.259 17.9343 36.719 17.9343 36.0473V34.293V34.2831H17.9345ZM16.9076 36.0758C16.9055 36.5414 16.8039 36.7982 16.6662 36.9186C16.3356 37.2226 15.9258 37.2682 15.4267 37.2695H15.421H15.4122C14.9314 37.2701 14.6159 37.1868 14.4361 37.0577C14.2665 36.9348 14.179 36.7601 14.174 36.4581V36.4442C14.1779 36.1454 14.2683 35.9587 14.4406 35.8271C14.621 35.6905 14.9239 35.6016 15.3771 35.6016H15.3814H16.9074V36.0758H16.9076Z" fill="#D7006D"/>
<path d="M39.5902 34.2919V34.2875C39.5909 33.6986 39.3942 33.1935 38.9812 32.8557C38.5665 32.5155 37.9701 32.3558 37.202 32.3551H37.1744H37.1637C36.3574 32.3532 35.7176 32.5281 35.2299 33.045L35.2287 33.0431L35.2004 33.0763C35.1634 33.1163 35.1274 33.1583 35.0929 33.2027C35.0929 33.2027 35.0923 33.2033 35.0923 33.204L35.042 33.2628C35.0119 33.298 34.9973 33.3455 35.0036 33.3932C35.0086 33.4408 35.0331 33.4872 35.0703 33.5192L35.0985 33.5436C35.1092 33.5562 35.1212 33.5681 35.1343 33.5793L35.243 33.669L35.5334 33.9189C35.5706 33.9508 35.6195 33.9677 35.6667 33.966C35.7138 33.9641 35.7584 33.9421 35.7879 33.9071L35.9745 33.6864C36.0903 33.5612 36.2096 33.4721 36.3537 33.4089C36.5572 33.32 36.8187 33.2785 37.1951 33.2754L37.1995 33.2748H37.2126C37.7494 33.2754 38.0824 33.3844 38.2736 33.5517C38.4646 33.7158 38.5615 33.9646 38.5627 34.3506C38.5627 34.3531 38.5627 34.3606 38.564 34.3688V34.7336H36.9707C36.3284 34.7348 35.7904 34.8796 35.4027 35.181C35.0173 35.4755 34.8024 35.9297 34.8018 36.4586L34.8024 36.4787C34.8036 36.9193 34.9695 37.351 35.2712 37.6511C35.679 38.0514 36.222 38.1967 37.0428 38.1967H37.0516H37.4677C38.2187 38.1974 38.7586 38.0125 39.1055 37.6391C39.4518 37.2662 39.5907 36.7268 39.5907 36.0564V34.3019L39.5902 34.2919ZM35.8307 36.4656V36.4519C35.8338 36.1531 35.925 35.967 36.0972 35.8354C36.2768 35.6982 36.5798 35.6097 37.0336 35.6097H37.0374H38.564V36.0841C38.5619 36.5489 38.4602 36.8053 38.3226 36.9255C37.9913 37.2301 37.5822 37.2751 37.0825 37.2764H37.0775H37.0681C36.5873 37.277 36.2718 37.1943 36.0926 37.0646C35.9224 36.9425 35.8351 36.767 35.8307 36.4656Z" fill="#D7006D"/>
<path d="M8.36433 32.3659H7.31479V31.3057H7.31416V30.7926C7.31416 30.7005 7.23309 30.6253 7.13312 30.6253H6.50221C6.45441 30.6253 6.40786 30.6435 6.37459 30.6742C6.34069 30.7055 6.32117 30.7488 6.32117 30.7926V31.738H6.32179V36.7081C6.32179 37.1116 6.43863 37.4757 6.69512 37.7507C6.93896 38.017 7.33494 38.1836 7.79231 38.1836H7.79418H8.09847V38.1793H8.36433C8.41025 38.1793 8.4554 38.1598 8.48742 38.1241C8.52069 38.0896 8.53897 38.0414 8.53897 37.9919V37.3772C8.53897 37.3283 8.52069 37.2794 8.48742 37.2444C8.4554 37.2087 8.41025 37.1893 8.36433 37.1893H7.87666C7.77794 37.1855 7.69812 37.1743 7.6297 37.1499C7.58565 37.1342 7.558 37.1173 7.53285 37.1016C7.5052 37.0821 7.48943 37.0728 7.4624 37.044C7.36868 36.9462 7.31651 36.7909 7.31479 36.5603V33.3565H8.36433C8.41025 33.3565 8.4554 33.3358 8.48742 33.3014C8.52069 33.2664 8.53897 33.2175 8.53897 33.168V32.5539C8.53897 32.505 8.52069 32.4561 8.48742 32.4211C8.4554 32.3854 8.41025 32.3659 8.36433 32.3659Z" fill="#D7006D"/>
<path d="M12.8889 33.0925L12.8303 33.0281C12.8277 33.0206 12.8234 33.0136 12.8172 33.0061L12.782 32.9705L12.733 32.9203L12.6935 32.8764L12.6921 32.8776C12.3351 32.5029 11.8909 32.3457 11.4176 32.345C11.4081 32.345 11.3962 32.345 11.3804 32.3457C11.0449 32.3457 10.6483 32.4961 10.4101 32.7811L10.2467 32.9753V32.8945V32.5417C10.2467 32.4955 10.2267 32.4503 10.1914 32.4178C10.1567 32.3852 10.1084 32.3657 10.0594 32.3657H9.44722C9.39833 32.3657 9.34975 32.3852 9.31523 32.4178C9.27993 32.4503 9.26056 32.4955 9.26056 32.5417V32.8945V38.0162C9.26056 38.0626 9.28008 38.1076 9.31523 38.1403C9.34975 38.1729 9.39818 38.1923 9.44722 38.1923H9.55282C9.55657 38.1923 9.55969 38.1929 9.56282 38.1929H9.9488C9.95192 38.1929 9.95567 38.1923 9.95879 38.1923H10.0594C10.1084 38.1923 10.1562 38.1729 10.1914 38.1403C10.2272 38.1078 10.2467 38.0626 10.2467 38.0162V37.9217V37.9179V34.6703V34.6577V34.3945C10.265 34.0925 10.361 33.8211 10.5182 33.6231C10.6878 33.4126 10.9348 33.2754 11.2686 33.2748C11.4451 33.2748 11.5615 33.2955 11.6621 33.3374C11.7589 33.3794 11.8575 33.452 11.9876 33.5854L12.0165 33.6149L12.1497 33.7627C12.1811 33.7979 12.2264 33.8184 12.2747 33.819C12.3233 33.8197 12.3722 33.8008 12.4086 33.7676L12.8667 33.3517C12.9037 33.3179 12.927 33.2715 12.9308 33.2226C12.9359 33.1748 12.9203 33.1277 12.8889 33.0925Z" fill="#D7006D"/>
<path d="M28.3007 35.196C28.2988 35.1941 28.2955 35.1929 28.293 35.191H28.2926C27.9355 34.9423 27.483 34.8559 26.9959 34.8145L26.0834 34.738C25.703 34.7061 25.4681 34.6271 25.3311 34.52C25.2149 34.4317 25.1432 34.2895 25.1413 34.0713V34.0663H25.1407L25.1413 34.0545C25.1432 33.7963 25.2444 33.6083 25.4228 33.4805C25.6138 33.3433 25.92 33.2556 26.353 33.2556H26.3569H26.3573C26.9092 33.2562 27.3661 33.3847 27.7476 33.629L27.7469 33.6296L27.9783 33.7919C28.0153 33.8176 28.0631 33.827 28.1084 33.8164C28.1542 33.807 28.1957 33.7782 28.2234 33.7387L28.5647 33.243C28.5915 33.2029 28.6037 33.1533 28.5973 33.1064C28.5936 33.0807 28.5842 33.0569 28.5697 33.0355C28.557 33.0117 28.5389 32.9899 28.515 32.9735L28.4761 32.9454C27.9325 32.5588 27.1732 32.3414 26.3544 32.34C25.6996 32.34 25.1408 32.4973 24.7348 32.798C24.3326 33.0938 24.0963 33.5412 24.0956 34.05L24.0963 34.0568V34.0606L24.0956 34.0736C24.0956 34.5236 24.2636 34.9214 24.5972 35.1927C24.9348 35.4678 25.4092 35.6145 26.0074 35.6627L26.9459 35.7386C27.2902 35.7699 27.5045 35.8457 27.6315 35.9516C27.7415 36.0407 27.8125 36.1823 27.8132 36.4084V36.421V36.4229C27.8105 36.7074 27.6957 36.9041 27.4806 37.04C27.2499 37.1861 26.8755 37.275 26.3544 37.275H26.3512C26.3494 37.275 26.3463 37.275 26.3413 37.2757H26.3369C25.65 37.2724 25.1616 37.1184 24.7808 36.8057L24.5827 36.6382C24.5474 36.6082 24.5004 36.5939 24.4526 36.6007C24.4054 36.6063 24.3601 36.632 24.3289 36.6695L23.936 37.1433C23.9038 37.1808 23.8876 37.231 23.8902 37.2792C23.8921 37.3269 23.9148 37.3713 23.9499 37.4015L24.1366 37.5588L24.1361 37.5594C24.1397 37.5625 24.1436 37.565 24.1467 37.5675L24.1712 37.5876L24.1731 37.5857C24.75 38.0025 25.4703 38.2016 26.3514 38.2016H26.3672C27.0937 38.201 27.7071 38.0437 28.1545 37.7362C28.597 37.4315 28.861 36.9636 28.8604 36.4229V36.3959C28.8607 35.8507 28.6489 35.4391 28.3007 35.196Z" fill="#D7006D"/>
<path d="M50.8246 37.9476L50.0592 36.8704L48.5249 34.638L49.7172 33.3761L50.4111 32.6447L50.4533 32.5979C50.5337 32.517 50.4942 32.4337 50.4595 32.4016C50.4244 32.3691 50.3759 32.3498 50.3269 32.3498H49.5299C49.4829 32.3498 49.4212 32.3861 49.3861 32.4168C49.3854 32.4168 49.3872 32.4168 49.3861 32.4168L46.7106 35.2621V32.8843V30.7865C46.7106 30.7401 46.6904 30.6944 46.6558 30.6624C46.6212 30.6293 46.5722 30.6104 46.5231 30.6104H45.9116C45.8619 30.6104 45.8141 30.6293 45.7796 30.6624C45.7438 30.6944 45.7243 30.7401 45.7243 30.7865V32.8843V38.016C45.7243 38.0624 45.7445 38.108 45.7791 38.1407C45.8137 38.1733 45.8621 38.1927 45.9117 38.1927H46.5233C46.5722 38.1927 46.6208 38.1733 46.6559 38.1407C46.6912 38.1082 46.7107 38.0624 46.7107 38.016V36.5566L47.8696 35.304L48.6502 36.4683H48.6464L49.7431 38.1024C49.7689 38.1381 49.8097 38.1958 49.9015 38.1958H50.6985C50.7475 38.1958 50.796 38.177 50.8305 38.1438C50.8649 38.1119 50.888 38.0278 50.8246 37.9476Z" fill="#D7006D"/>
<path d="M43.9737 30.6654H44.0817L44.2424 31.1365L44.4032 30.6654H44.5094V31.2231H44.4379V30.8929C44.4379 30.8817 44.4379 30.8641 44.4379 30.8366C44.4379 30.8102 44.4397 30.7833 44.4397 30.7526L44.2795 31.2231H44.2041L44.044 30.7526V30.7696V30.8309C44.0452 30.861 44.0452 30.8811 44.0452 30.8929V31.2231H43.9737V30.6654Z" fill="#D7006D"/>
<path d="M44.8336 30.6654H45.0893C45.1314 30.6654 45.1666 30.6716 45.1923 30.6842C45.2445 30.7068 45.2696 30.7507 45.2696 30.8152C45.2696 30.8484 45.264 30.8761 45.2495 30.8973C45.2345 30.918 45.2156 30.9367 45.1898 30.9493C45.2118 30.9586 45.2301 30.9694 45.2407 30.9837C45.2509 30.998 45.257 31.0227 45.257 31.0546L45.2615 31.1286C45.2615 31.1505 45.264 31.1662 45.2665 31.1768C45.2715 31.1937 45.2796 31.205 45.291 31.2094V31.2232H45.1987C45.1961 31.2175 45.195 31.2119 45.1923 31.205C45.1898 31.1969 45.1898 31.1824 45.1892 31.1605L45.1842 31.067C45.1811 31.0301 45.1698 31.0055 45.1447 30.9937C45.1316 30.9868 45.1071 30.9837 45.0774 30.9837H44.9091V31.2231H44.8337V30.6654H44.8336ZM45.0804 30.9203C45.1149 30.9203 45.1419 30.914 45.1631 30.899C45.1814 30.8865 45.1926 30.8609 45.1926 30.8219C45.1926 30.783 45.1795 30.7556 45.1499 30.7411C45.1349 30.7336 45.1147 30.7299 45.0904 30.7299H44.9088V30.9203H45.0804Z" fill="#D7006D"/>
<path d="M44.6751 31.2199C44.6529 31.2199 44.6382 31.2033 44.6382 31.1786C44.6382 31.1539 44.6541 31.1368 44.6776 31.1368C44.6999 31.1368 44.7152 31.1539 44.7152 31.1786C44.7152 31.2033 44.6997 31.2199 44.6751 31.2199Z" fill="#D7006D"/>
<path d="M45.4413 31.2199C45.419 31.2199 45.4019 31.2033 45.4019 31.1786C45.4019 31.1539 45.4189 31.1368 45.4418 31.1368C45.4657 31.1368 45.4812 31.1539 45.4812 31.1786C45.4812 31.2033 45.4659 31.2199 45.4418 31.2199H45.4413Z" fill="#D7006D"/>
<path d="M1.9043 9.86727C2.95712 9.86727 3.81125 9.01074 3.81125 7.95502C3.81125 6.89853 2.95712 6.04138 1.9043 6.04138C0.854755 6.04138 0 6.89853 0 7.95502C0 9.01074 0.854599 9.86727 1.9043 9.86727Z" fill="#D7006D"/>
<path d="M63.8522 7.49756C63.841 7.48448 63.8302 7.47125 63.8158 7.45816C62.6676 6.40167 60.8312 5.7476 58.7026 5.74573C58.6737 5.74199 58.6297 5.74199 58.5883 5.74199C56.8386 5.74137 55.1114 6.10531 53.6119 7.38606L53.6094 7.38731V6.26323H53.6125V0.571356C53.6125 0.421074 53.5485 0.273128 53.4352 0.168475C53.3227 0.0619542 53.1656 -0.000183105 53.0053 -0.000183105H51.0175C50.8597 -0.000183105 50.7032 0.0617985 50.5882 0.168475C50.4743 0.273128 50.4111 0.421074 50.4111 0.571356V6.26323H50.4129V18.3482H50.4111V24.0099C50.4111 24.1597 50.4764 24.3075 50.5882 24.4115C50.7026 24.5187 50.8597 24.5802 51.02 24.5802H53.0053C53.1656 24.5802 53.3221 24.5187 53.4352 24.4115C53.5508 24.3075 53.6137 24.1597 53.6137 24.0099V22.8388C54.9399 24.3168 56.8424 24.8262 58.5883 24.8256H58.7109C60.8345 24.8188 62.671 24.1652 63.816 23.1101C65.9566 21.0893 66.4455 17.9921 66.4532 15.1129C66.4473 12.2496 65.9565 9.51025 63.8522 7.49756ZM63.2552 15.1124V15.1518V15.1568V15.1989C63.2502 16.9971 63.0585 18.7553 62.3723 20.0129C61.698 21.2234 60.6131 22.0318 58.5064 22.0637C58.4927 22.0625 58.4706 22.0625 58.4278 22.0637H58.3925C56.272 22.043 55.1735 21.2329 54.4954 20.011C53.8034 18.7485 53.6092 16.9758 53.6092 15.1655V15.0565C53.6117 13.2583 53.8034 11.8153 54.4954 10.5576C55.1735 9.33568 56.2722 8.52493 58.3925 8.50624H58.4071H58.4416H58.4742C60.5961 8.52509 61.6908 9.33459 62.3753 10.56C63.0617 11.8151 63.2552 13.2581 63.2552 15.0565V15.1124Z" fill="#6B1A6B"/>
<path d="M82.1581 23.0567C84.263 21.0442 84.7531 18.3047 84.7586 15.4406C84.7519 12.562 84.2628 9.46483 82.1216 7.4442C80.9764 6.38911 79.1401 5.73488 77.0171 5.72803H76.8945C75.1486 5.7274 73.2455 6.23681 71.9199 7.71549V6.54438C71.9199 6.39472 71.8565 6.24677 71.7414 6.14274C71.6275 6.03498 71.4713 5.97409 71.3115 5.97409H69.3255C69.1653 5.97409 69.0081 6.03482 68.8943 6.14274C68.7818 6.24662 68.7165 6.39456 68.7165 6.54438V12.2062H68.7184V24.2904H68.7165V29.9829C68.7165 30.1332 68.7798 30.2805 68.8943 30.3858C69.0086 30.4923 69.1651 30.5537 69.323 30.5537H71.3109C71.4712 30.5537 71.6283 30.4923 71.7414 30.3858C71.854 30.2805 71.9187 30.1332 71.9187 29.9829V24.2904H71.915V23.167L71.9174 23.1682C73.4172 24.4483 75.1442 24.8131 76.8945 24.8124C76.936 24.8124 76.9799 24.8124 77.0083 24.8081C79.1369 24.8062 80.9734 24.1528 82.1216 23.0963C82.1361 23.0829 82.1473 23.0698 82.1581 23.0567ZM81.5609 15.4976C81.5609 17.2958 81.368 18.7389 80.681 19.9933C79.9973 21.2195 78.9025 22.029 76.78 22.0485H76.7479H76.7134H76.6989C74.5784 22.029 73.4792 21.2183 72.8009 19.9964C72.109 18.7389 71.9173 17.2958 71.9148 15.4976V15.3886C71.9148 13.5784 72.109 11.8058 72.8009 10.5427C73.4792 9.3214 74.5784 8.51128 76.6989 8.48995H76.7334C76.7762 8.49181 76.7989 8.49181 76.8126 8.48995C78.9187 8.52249 80.0036 9.33028 80.6779 10.5406C81.3647 11.7988 81.5558 13.5564 81.5608 15.3553V15.3973V15.4017V15.4418V15.4976H81.5609Z" fill="#6B1A6B"/>
<path d="M110.67 26.3074C110.496 26.7793 110.182 27.5412 109.973 27.9985C109.973 27.9985 109.595 28.8281 109.059 29.3632C108.569 29.8513 108.01 30.1885 107.379 30.3752C106.75 30.5607 106.336 30.5895 106.336 30.5895C105.832 30.6247 105.097 30.6541 104.703 30.6541C104.309 30.6541 103.986 30.2419 103.986 29.7393V28.3947C103.986 27.8916 104.191 27.4798 104.441 27.4798C104.692 27.4798 105.307 27.4373 105.809 27.3857C105.809 27.3857 106.191 27.3457 106.54 27.078C106.89 26.8098 107.067 26.4252 107.067 26.4252C107.278 25.9678 107.587 25.2053 107.756 24.731L108.123 23.6964C108.291 23.2222 108.287 22.4476 108.114 21.9753L102.552 6.82014C102.379 6.34827 102.65 5.96112 103.155 5.96112H105.098C105.603 5.96112 106.149 6.35139 106.31 6.82762L109.953 17.5459C110.116 18.0228 110.378 18.0215 110.536 17.544L114.088 6.83026C114.247 6.35217 114.789 5.96112 115.294 5.96112H117.272C117.777 5.96112 118.046 6.34765 117.872 6.81952L110.67 26.3074Z" fill="#6B1A6B"/>
<path d="M101.565 12.1346V12.1215C101.565 10.2298 100.933 8.60774 99.6083 7.52368C98.276 6.43215 96.361 5.91963 93.8973 5.91839H93.8081H93.7747C91.1854 5.912 89.1315 6.47295 87.5672 8.13088L87.5604 8.1259L87.4712 8.23304C87.3535 8.36215 87.2379 8.49685 87.1253 8.63904C87.1249 8.64028 87.1242 8.64215 87.1235 8.6434L86.9632 8.83261C86.8671 8.94614 86.8199 9.09829 86.8401 9.25122C86.8563 9.40478 86.9349 9.5521 87.0544 9.65473L87.1442 9.73306C87.1789 9.77448 87.2178 9.81264 87.2598 9.84706L87.6099 10.1341L88.5413 10.9361C88.6596 11.0395 88.8173 11.0959 88.9693 11.0878C89.1208 11.0822 89.2622 11.0132 89.3583 10.8992L89.9553 10.1923V10.1917C90.3286 9.78944 90.7115 9.50304 91.1734 9.30137C91.8263 9.0156 92.6647 8.88214 93.8753 8.87155L93.8896 8.8703L93.9306 8.86905C95.6526 8.87342 96.7243 9.22257 97.3377 9.75876C97.9493 10.2864 98.2595 11.0847 98.2642 12.324C98.2642 12.3315 98.2642 12.354 98.2673 12.3822V13.5515H93.1541C91.0908 13.5565 89.3661 14.0208 88.1211 14.9883C86.8848 15.9351 86.1948 17.3918 86.194 19.0892L86.1948 19.1524C86.1981 20.5666 86.7309 21.9526 87.7 22.9163C89.0085 24.2014 90.7519 24.6683 93.3859 24.6683H93.4154H94.7497C97.1623 24.6708 98.8926 24.0762 100.007 22.8788C101.119 21.6826 101.566 19.9502 101.566 17.7972V12.1672L101.565 12.1346ZM89.4953 19.111V19.0678C89.5053 18.1085 89.7982 17.5089 90.3502 17.0872C90.9277 16.6487 91.9007 16.3648 93.3568 16.3648H93.3693H98.267V17.8861C98.262 19.3787 97.9338 20.2033 97.4941 20.5879C96.4319 21.5642 95.1165 21.7108 93.514 21.7145H93.4963H93.4673C91.9238 21.7164 90.9108 21.4501 90.3361 21.034C89.7902 20.641 89.5092 20.0796 89.4953 19.111Z" fill="#6B1A6B"/>
<path d="M29.8834 5.99866C29.3554 5.99866 28.8073 6.41275 28.6628 6.91841L25.1891 19.1324C25.0453 19.6387 24.7925 19.6436 24.6279 19.1437L20.588 6.90658C20.4233 6.40777 19.8571 5.99866 19.3297 5.99866H18.6051C18.0777 5.99866 17.5127 6.40777 17.3492 6.9072L13.3407 19.1437C13.1766 19.6432 12.9241 19.6394 12.7794 19.1331L9.2748 6.91841C9.12953 6.41275 8.57969 5.99866 8.05171 5.99866H6.57604C6.04885 5.99866 5.74769 6.40901 5.9067 6.91032L11.267 23.7646C11.4267 24.2653 11.9879 24.6763 12.5159 24.6763H13.5297C14.0005 24.6763 14.5077 24.3123 14.6572 23.8668L18.6643 11.9455C18.8321 11.4467 19.1068 11.4467 19.2758 11.9442L23.2812 23.7702C23.4503 24.2678 24.0196 24.6763 24.547 24.6763H25.5281C26.0164 24.6763 26.5355 24.296 26.6832 23.8318L32.0303 6.91094C32.1881 6.40901 31.8871 5.99866 31.3597 5.99866H29.8834Z" fill="#6B1A6B"/>
<path d="M36.0181 13.6705C36.0834 12.5081 36.1678 11.9882 36.5247 11.1153C37.1795 9.56822 38.6809 8.60766 40.4415 8.60766C42.2018 8.60766 43.702 9.5676 44.3568 11.1122C44.7145 11.9882 44.7987 12.5081 44.8646 13.6705H36.0181ZM48.1403 14.7476C48.1403 9.20428 45.19 5.76056 40.4414 5.76056C35.6209 5.76056 32.7425 9.3108 32.7425 15.2582C32.7425 21.3824 35.6453 24.7559 40.9164 24.7559C44.1901 24.7559 45.9468 23.6612 47.7191 21.8949L47.9555 21.6599L45.693 19.6799L45.4856 19.8854C44.0413 21.3259 42.8641 21.8359 40.99 21.8359C37.8684 21.8359 36.1004 19.8578 36.0048 16.2619H48.1403V14.7476Z" fill="#6B1A6B"/>
<path d="M117.775 24.6653C118.828 24.6653 119.682 23.8088 119.682 22.7537C119.682 21.6966 118.828 20.8388 117.775 20.8388C116.724 20.8388 115.872 21.6966 115.872 22.7537C115.872 23.8088 116.724 24.6653 117.775 24.6653Z" fill="#D7006D"/>
</svg>
