<svg width="40" height="40" viewBox="0 0 40 40" fill="none" xmlns="http://www.w3.org/2000/svg">
<path d="M20 0C11.1783 0 4 7.03036 4 15.6702C4 21.6095 8.11342 27.8351 11.5665 32.0069C14.3894 35.4234 18.9716 39.9062 19.9798 39.9901L20.126 40C21.2048 40 25.9584 35.1765 28.5192 32.0513C31.9319 27.8795 36 21.649 36 15.6751C36 7.03036 28.8217 0 20 0ZM20 26.5268C15.075 26.5268 10.8859 23.4559 9.31821 19.1656C8.88973 17.9906 8.6528 16.7317 8.6528 15.4135C8.6528 9.27672 13.7341 4.29524 20 4.29524C26.2659 4.29524 31.3472 9.27178 31.3472 15.4135C31.3472 16.944 31.0296 18.4004 30.46 19.7285C28.741 23.7225 24.7032 26.5268 20 26.5268Z" fill="#DA291C"/>
<path fill-rule="evenodd" clip-rule="evenodd" d="M20.1313 26.9119C26.5346 26.9119 31.7255 21.828 31.7255 15.5566C31.7255 9.28532 26.5346 4.20142 20.1313 4.20142C13.728 4.20142 8.53711 9.28532 8.53711 15.5566C8.53711 21.828 13.728 26.9119 20.1313 26.9119ZM20.0002 19.9999C22.7616 19.9999 25.0002 17.7614 25.0002 14.9999C25.0002 12.2385 22.7616 9.99994 20.0002 9.99994C17.2388 9.99994 15.0002 12.2385 15.0002 14.9999C15.0002 17.7614 17.2388 19.9999 20.0002 19.9999Z" fill="#A21B11"/>
</svg>
