<svg width="150" height="33" viewBox="0 0 150 33" fill="none" xmlns="http://www.w3.org/2000/svg">
<path d="M115.757 24.9516C115.757 24.9516 116.003 25.5907 116.871 25.5907C117.738 25.5907 117.533 24.9516 117.533 24.9516L111.069 7.92177C111.069 7.91019 110.786 7.22144 109.866 7.22144C108.945 7.22144 108.654 7.92674 108.654 7.92674L102.031 24.9565C102.02 24.9863 101.824 25.5923 102.669 25.5923C103.513 25.5923 103.781 24.9549 103.781 24.9532L105.79 19.5791H113.737L115.757 24.9516ZM106.291 18.1618L109.786 8.89032L113.161 18.1618H106.291ZM99.1721 7.22144C98.0844 7.22144 97.7549 7.71813 97.6821 7.8837L91.9304 23.4466L86.1556 7.89694C86.0877 7.74462 85.7731 7.22144 84.6506 7.22144C83.4917 7.22144 83.4437 8.11217 83.4437 8.11217V24.7595C83.4437 24.9791 83.5309 25.1896 83.6861 25.3449C83.8414 25.5001 84.0519 25.5873 84.2715 25.5873C84.491 25.5873 84.7016 25.5001 84.8568 25.3449C85.0121 25.1896 85.0993 24.9791 85.0993 24.7595V9.5923H85.149L90.8327 24.8241C90.8327 24.8241 91.1076 25.589 91.9056 25.589C92.7036 25.589 92.9966 24.839 93.0033 24.8274L98.6672 9.59562H98.7135V24.7628C98.7135 24.9824 98.8007 25.1929 98.956 25.3482C99.1112 25.5034 99.3218 25.5907 99.5413 25.5907C99.7609 25.5907 99.9715 25.5034 100.127 25.3482C100.282 25.1929 100.369 24.9824 100.369 24.7628V8.11217C100.369 8.11217 100.331 7.22144 99.1721 7.22144ZM47.1506 25.5393C51.8923 25.5393 54.5049 23.3754 54.5049 18.6403V9.03767C54.5049 7.98138 53.7947 7.1933 52.74 7.1933C51.6854 7.1933 50.9768 7.98138 50.9751 9.03767V18.6403C50.9751 21.2628 49.7649 22.7297 47.1457 22.7297C44.5264 22.7297 43.3377 21.2628 43.3377 18.6403C43.3377 18.6403 43.3377 10.6585 43.3377 9.03767C43.3377 7.98138 42.6158 7.19827 41.5612 7.19827C40.5066 7.19827 39.7864 7.98138 39.7864 9.03767V18.6403C39.7864 23.3754 42.399 25.5393 47.1423 25.5393H47.1506ZM65.096 7.20323C60.3543 7.20323 57.7417 9.37376 57.7417 14.1271V23.7579C57.7417 24.8175 58.4519 25.5377 59.5066 25.5377C60.5612 25.5377 61.2682 24.8175 61.2698 23.7579C61.2698 23.7579 61.2913 15.0542 61.2913 14.1271C61.2913 11.4946 62.4817 10.0211 65.0993 10.0211C67.7483 10.0211 68.9072 11.4946 68.9072 14.1271C68.9072 14.1271 68.9072 22.137 68.9072 23.7579C68.9072 24.8175 69.6291 25.5377 70.6821 25.5377C71.7351 25.5377 72.4586 24.8175 72.4586 23.7579V14.1271C72.4586 9.37376 69.8476 7.20323 65.1026 7.20323H65.096ZM75.7963 23.8241C75.7963 24.882 76.5182 25.5708 77.5728 25.5708C78.6274 25.5708 79.3476 24.882 79.3476 23.8241V9.04595C79.3476 7.988 78.6258 7.20323 77.5728 7.20323C76.5198 7.20323 75.7963 7.988 75.7963 9.04595V23.8241ZM130.651 21.4714C130.71 22.2463 130.745 23.2612 130.758 23.5095C130.853 25.0393 130.972 25.5907 132.003 25.5907C132.531 25.5907 132.69 25.3489 132.69 25.1469C132.69 24.7165 132.209 23.8224 132.209 20.5277C132.209 17.3936 130.104 16.6469 129.142 16.5807V16.5327C129.142 16.5327 132.545 16.1767 132.545 12.1056C132.545 8.8688 129.871 7.22144 127.232 7.22144H119.868C119.784 7.214 119.7 7.2245 119.622 7.25222C119.543 7.27995 119.471 7.32425 119.411 7.38215C119.35 7.44005 119.303 7.5102 119.272 7.58787C119.241 7.66553 119.228 7.74891 119.232 7.83237V24.7562C119.232 24.9771 119.319 25.1889 119.476 25.3451C119.632 25.5013 119.844 25.589 120.065 25.589C120.285 25.589 120.497 25.5013 120.653 25.3451C120.81 25.1889 120.897 24.9771 120.897 24.7562V17.243H127.422C129.49 17.2695 130.422 18.4383 130.659 21.4714H130.651ZM127.109 15.8224H120.889V8.64363H127.109C129.389 8.64363 130.881 10.0195 130.881 12.3489C130.881 14.4764 129.24 15.8257 127.109 15.8257V15.8224ZM149.412 19.3705C148.545 19.0642 148.376 19.8142 148.376 19.8142C148.287 20.1285 148.177 20.4361 148.045 20.7347C147.753 21.4118 146.488 24.1453 143.01 24.1453C139.449 24.1453 136.435 21.5658 136.435 16.4714C136.435 12.6999 138.119 8.62707 143.01 8.62707C145.96 8.62707 147.361 10.3837 147.646 10.945C147.897 11.4416 148.116 12.1221 149.081 11.7612C149.295 11.6784 149.775 11.334 149.442 10.7397C149.368 10.5956 149.293 10.4565 149.212 10.3224C148.78 9.62045 146.988 7.20489 143.013 7.20489C137.995 7.20489 134.778 10.7612 134.778 16.4764C134.778 21.8009 137.97 25.5426 143.013 25.5426C147.589 25.5426 149.122 22.3241 149.517 21.4615C149.713 21.0188 149.87 20.5602 149.988 20.0906C150.068 19.541 149.407 19.3787 149.407 19.3787" fill="black"/>
<path d="M32.7914 24.5944C32.791 26.768 31.9271 28.8526 30.39 30.3894C28.8528 31.9263 26.7681 32.7897 24.5944 32.7897H8.20364C7.12678 32.7906 6.06029 32.5793 5.06513 32.1678C4.06996 31.7564 3.16562 31.1529 2.40378 30.3918C1.64194 29.6307 1.03752 28.727 0.625071 27.7322C0.212621 26.7375 0.000218658 25.6712 1.50475e-06 24.5944V8.20364C-0.000650947 7.12669 0.210878 6.06017 0.622504 5.065C1.03413 4.06982 1.63779 3.1655 2.399 2.40368C3.1602 1.64185 4.06404 1.03747 5.05889 0.625037C6.05373 0.212607 7.12008 0.000217279 8.19702 0H24.5877C26.7619 0.000439042 28.8468 0.864419 30.384 2.40192C31.9212 3.93942 32.7848 6.02453 32.7848 8.19867L32.7914 24.5944ZM32.7914 23.3841C29.7914 25.3195 23.9818 25.1291 24.3146 17.9669C24.4172 15.7781 24.5281 14.1341 24.6192 12.0728C24.7103 10.0695 22.1689 10.0298 21.8642 11.606C21.1275 15.4437 21.8642 23.4967 15.5579 23.4967C10.3858 23.4967 11.3841 14.6424 11.5298 10.9967C11.5927 9.47516 11.7897 7.86589 10.2252 7.86589C8.26656 7.86589 8.14073 11.7682 8.03974 12.7699C7.6159 17.0281 7.45033 26.2318 14.6225 26.2318C16.5265 26.2318 20.0066 25.447 21.5762 20.4834H21.8113C22.1242 23.9222 25.2318 25.7566 28.3146 25.7566C30.3311 25.7566 32.1225 24.8609 32.7848 24.101L32.7914 23.3841Z" fill="#E1251B"/>
</svg>
