<svg width="34" height="38" viewBox="0 0 34 38" fill="none" xmlns="http://www.w3.org/2000/svg">
  <g filter="url(#filter0_d_118_6340)">
    <path d="M30 12.5708C30 19.5134 19.5575 29.6111 17 29.6111C14.4425 29.6111 4 19.5134 4 12.5708C4 5.62812 9.8203 0 17 0C24.1797 0 30 5.62812 30 12.5708Z" fill="url(#paint0_linear_118_6340)" />
    <path d="M29.5 12.5708C29.5 14.1907 28.8873 16.0395 27.8866 17.9281C26.8896 19.8097 25.5282 21.6919 24.0807 23.3676C22.6333 25.0431 21.111 26.4994 19.8007 27.5322C19.1449 28.0491 18.5511 28.4529 18.0532 28.7249C17.5362 29.0073 17.187 29.1111 17 29.1111C16.813 29.1111 16.4638 29.0073 15.9468 28.7249C15.4489 28.4529 14.8551 28.0491 14.1993 27.5322C12.889 26.4994 11.3667 25.0431 9.91932 23.3676C8.47185 21.6919 7.11045 19.8097 6.11341 17.9281C5.11266 16.0395 4.5 14.1907 4.5 12.5708C4.5 5.91995 10.0805 0.5 17 0.5C23.9195 0.5 29.5 5.91995 29.5 12.5708Z" stroke="white" />
  </g>
  <path d="M23.5 15.7152C22.3222 16.5033 19.9804 16.4507 20.1135 13.5891C20.1324 13.1816 20.1491 12.8245 20.1654 12.4757C20.1838 12.0826 20.2018 11.7 20.2217 11.2675C20.2571 10.4737 19.2499 10.4593 19.1307 11.0826C19.0759 11.366 19.0374 11.7038 18.996 12.0662C18.8155 13.6466 18.5814 15.6961 16.72 15.7596C14.6489 15.8292 14.8276 12.9676 14.9298 11.3292C14.9419 11.1355 14.953 10.9589 14.9591 10.8063C14.9609 10.7598 14.9631 10.7136 14.9652 10.6679C14.9909 10.1208 15.0135 9.64042 14.442 9.57025C13.7639 9.48632 13.6301 10.9402 13.5846 11.4337C13.582 11.4621 13.5797 11.4873 13.5776 11.5089C13.4091 13.1962 13.4477 16.2704 15.5906 16.7464C16.7943 17.0139 18.4057 16.5537 19.029 14.5861H19.1232C19.2466 15.9488 20.4785 16.6751 21.7002 16.6751C22.5277 16.6751 23.2614 16.2924 23.5 15.9812V16.2512C23.4993 18.0451 22.0453 19.4992 20.2514 19.5H13.7516C11.9567 19.5004 10.5011 18.0461 10.5 16.2512V9.7505C10.5 8.88824 10.8426 8.06131 11.4524 7.4517C12.0623 6.84208 12.8893 6.49974 13.7516 6.5H20.2514C22.046 6.50069 23.5004 7.95591 23.5 9.7505V15.7152Z" fill="white" />
  <defs>
    <filter id="filter0_d_118_6340" x="0" y="0" width="34" height="37.6113" filterUnits="userSpaceOnUse" color-interpolation-filters="sRGB">
      <feFlood flood-opacity="0" result="BackgroundImageFix" />
      <feColorMatrix in="SourceAlpha" type="matrix" values="0 0 0 0 0 0 0 0 0 0 0 0 0 0 0 0 0 0 127 0" result="hardAlpha" />
      <feOffset dy="4" />
      <feGaussianBlur stdDeviation="2" />
      <feColorMatrix type="matrix" values="0 0 0 0 0.105882 0 0 0 0 0.129412 0 0 0 0 0.219608 0 0 0 0.1 0" />
      <feBlend mode="normal" in2="BackgroundImageFix" result="effect1_dropShadow_118_6340" />
      <feBlend mode="normal" in="SourceGraphic" in2="effect1_dropShadow_118_6340" result="shape" />
    </filter>
    <linearGradient id="paint0_linear_118_6340" x1="17" y1="0" x2="17" y2="29.6111" gradientUnits="userSpaceOnUse">
      <stop stop-color="#DA291C" />
      <stop offset="0.444389" stop-color="#C00000" />
    </linearGradient>
  </defs>
</svg>
  