<svg width="150" height="34" viewBox="0 0 150 34" fill="none" xmlns="http://www.w3.org/2000/svg">
<path d="M24.6956 33.4615C29.2414 33.4615 32.9268 29.7165 32.9268 25.0965V24.7378C32.3256 25.5503 30.4891 26.5492 28.4062 26.5492C25.3409 26.5492 22.2515 24.6527 21.9427 21.0983H21.7058C20.145 26.2297 16.0996 27.4305 13.079 26.734C7.70285 25.4937 7.60534 17.4721 8.02641 13.0691C8.03191 13.0117 8.03796 12.9442 8.04479 12.8681C8.1606 11.5767 8.49995 7.79254 10.1967 8.01073C11.6333 8.19457 11.5761 9.45024 11.5111 10.8788C11.5058 10.9968 11.5003 11.116 11.4957 11.2359C11.4803 11.6341 11.4527 12.0947 11.4223 12.5999C11.1656 16.8754 10.7172 24.3412 15.9129 24.159C20.587 23.9938 21.1731 18.6376 21.6245 14.5123C21.7275 13.5712 21.8235 12.6941 21.9594 11.9574C22.2604 10.3273 24.7883 10.3684 24.6986 12.4392C24.6412 13.7726 24.5887 14.9237 24.5327 16.1532C24.4992 16.8885 24.4644 17.6518 24.4265 18.4989C24.0934 25.9627 29.9673 26.1004 32.9268 24.0452V8.36547C32.9268 3.74489 29.2414 0 24.6956 0H8.23168C3.68552 0 0 3.74489 0 8.36547V25.0965C0 29.7165 3.68552 33.4615 8.23168 33.4615H24.6956Z" fill="white"/>
<path fill-rule="evenodd" clip-rule="evenodd" d="M149.34 19.8693C148.459 19.553 148.29 20.3194 148.29 20.3194L148.288 20.3158C148.201 20.6421 148.092 20.9551 147.962 21.2584C147.666 21.9514 147.278 22.5548 146.798 23.0723C146.322 23.5866 145.749 23.9956 145.091 24.2957C144.43 24.5962 143.686 24.7462 142.863 24.7462C141.688 24.7462 140.682 24.5191 139.84 24.0722C138.998 23.6217 138.308 23.0243 137.771 22.2833C137.236 21.5424 136.84 20.7026 136.584 19.7604C136.325 18.8185 136.199 17.8666 136.199 16.899C136.199 15.9184 136.325 14.9605 136.584 14.0275C136.84 13.095 137.236 12.2584 137.771 11.5174C138.308 10.7761 138.998 10.1791 139.84 9.72857C140.682 9.27843 141.688 9.05457 142.863 9.05457C143.506 9.05457 144.12 9.15057 144.706 9.34216C145.292 9.53416 145.828 9.81166 146.317 10.1791C146.803 10.5466 147.215 10.9999 147.553 11.5425C147.647 11.6901 147.726 11.8494 147.804 12.0091L147.807 11.9902C147.807 11.9902 148.032 12.7436 149.005 12.373C149.227 12.2903 149.711 11.9389 149.372 11.3319C149.301 11.1851 149.224 11.0411 149.139 10.9039C148.703 10.1884 148.156 9.58538 147.504 9.09329C146.852 8.6012 146.126 8.23092 145.324 7.98165C144.525 7.72915 143.702 7.60492 142.863 7.60492C141.475 7.60492 140.256 7.86024 139.208 8.36766C138.158 8.87589 137.288 9.55917 136.596 10.4159C135.903 11.2746 135.383 12.2612 135.036 13.3757C134.689 14.4942 134.515 15.6692 134.515 16.899C134.515 18.1349 134.689 19.3066 135.036 20.4215C135.383 21.5396 135.903 22.5197 136.596 23.3696C137.288 24.219 138.158 24.8995 139.208 25.4069C140.256 25.9147 141.475 26.1709 142.863 26.1709C143.9 26.1709 144.847 26.0015 145.698 25.6691C146.547 25.3371 147.286 24.8608 147.913 24.2444C148.539 23.6281 149.052 22.8811 149.448 21.9958C149.646 21.5585 149.801 21.089 149.928 20.5941C150.007 20.0351 149.34 19.8693 149.34 19.8693ZM129.099 16.6507C129.554 16.4955 129.956 16.267 130.302 15.969C130.646 15.6714 130.921 15.3137 131.126 14.8925C131.329 14.4709 131.431 13.986 131.431 13.4416C131.431 12.3519 131.12 11.4938 130.498 10.8661C129.876 10.2393 128.924 9.92566 127.648 9.92566H121.408V16.8879H127.648C128.157 16.8879 128.639 16.8087 129.099 16.6507ZM131.702 23.4056C131.666 22.7752 131.612 22.1475 131.535 21.5227C131.459 20.8983 131.298 20.3443 131.056 19.8538C130.812 19.3662 130.459 18.9679 129.997 18.6686C129.532 18.372 128.899 18.2385 128.092 18.2703H121.583V25.3235C121.583 25.7919 121.197 26.1709 120.723 26.1709C120.25 26.1709 119.866 25.7919 119.866 25.3235V8.99648C119.87 8.87216 119.92 8.3785 120.525 8.3785H128.116C128.857 8.3785 129.559 8.46782 130.224 8.65249C130.887 8.83434 131.47 9.11155 131.964 9.48733C132.459 9.85989 132.858 10.3407 133.152 10.9337C133.445 11.5195 133.592 12.2143 133.592 13.0138C133.592 14.1415 133.298 15.1228 132.71 15.954C132.121 16.786 131.245 17.3143 130.085 17.5501V17.598C130.674 17.6808 131.16 17.8337 131.55 18.0598C131.934 18.2831 132.25 18.5696 132.495 18.9172C132.737 19.2676 132.914 19.6688 133.026 20.1274C133.136 20.5829 133.206 21.0801 133.24 21.6088C133.256 21.9081 133.273 22.2747 133.29 22.708C133.306 23.1381 133.341 23.5746 133.391 24.014C133.44 24.4569 133.521 24.8713 133.629 25.2596C133.66 25.3682 133.693 25.4668 133.729 25.5625V25.5593C133.729 25.5593 133.906 26.1709 133.031 26.1709C132.16 26.1709 131.94 25.5593 131.94 25.5593C131.882 25.3203 131.837 25.0721 131.813 24.8138C131.787 24.5555 131.768 24.3008 131.751 24.0522C131.734 23.8039 131.718 23.5875 131.702 23.4056ZM99.3294 8.3785C98.1892 8.3785 97.8471 8.8786 97.7608 9.0504L91.7388 23.979L85.697 9.06649C85.6284 8.91079 85.298 8.3785 84.1235 8.3785C82.9114 8.3785 82.8593 9.28657 82.8593 9.28657V25.3235C82.8593 25.7919 83.2501 26.1709 83.7294 26.1709C84.2102 26.1709 84.5994 25.7919 84.5994 25.3235V10.7933H84.6502L90.6019 25.3907C90.6019 25.3907 90.8915 26.1709 91.7239 26.1709C92.5498 26.1709 92.8687 25.4064 92.8736 25.3936L98.801 10.7933H98.8518V25.3235C98.8518 25.7919 99.2422 26.1709 99.7218 26.1709C100.203 26.1709 100.592 25.7919 100.592 25.3235V9.28657C100.592 9.28657 100.54 8.3785 99.3294 8.3785ZM106.76 19.2086H113.698L110.289 9.92566L106.76 19.2086ZM115.733 25.5211L113.836 20.6372H105.807L103.932 25.5211C103.932 25.5211 103.682 26.1709 102.807 26.1709C101.953 26.1709 102.15 25.5529 102.161 25.5243L108.707 9.09546C108.707 9.09546 108.993 8.3785 109.931 8.3785C110.863 8.3785 111.144 9.07977 111.149 9.09224L117.534 25.5211C117.534 25.5211 117.733 26.1709 116.857 26.1709C115.982 26.1709 115.733 25.5211 115.733 25.5211ZM75.1496 23.952C75.1496 24.6865 75.3276 25.2412 75.6877 25.6133C76.046 25.981 76.5013 26.1709 77.057 26.1709C77.6368 26.1709 78.1054 25.985 78.4655 25.6194C78.8242 25.2505 79.0045 24.6962 79.0045 23.952V9.80753C79.0045 9.06699 78.8242 8.51512 78.4655 8.1499C78.1054 7.78469 77.6368 7.60492 77.057 7.60492C76.4949 7.60492 76.0361 7.78753 75.6808 8.15679C75.3259 8.522 75.1496 9.07346 75.1496 9.80753V23.952ZM72.0656 15.3315C72.0656 13.9755 71.9168 12.8114 71.6158 11.8365C71.3147 10.8586 70.8446 10.061 70.2028 9.43544C69.5594 8.81028 68.7311 8.34871 67.7143 8.05071C66.6963 7.75513 65.4831 7.60492 64.0755 7.60492C62.8916 7.60492 61.8554 7.74299 60.9746 8.02196C60.0906 8.29729 59.3144 8.73983 58.6466 9.34272C57.8705 10.0541 57.3449 10.8785 57.0654 11.8178C56.7854 12.7572 56.6461 13.9269 56.6461 15.3315V23.965C56.6461 24.7088 56.8181 25.2603 57.165 25.6259C57.5107 25.9883 57.9639 26.1709 58.5205 26.1709C59.0804 26.1709 59.5257 25.9883 59.8594 25.6259C60.1935 25.2603 60.3606 24.7088 60.3606 23.965V15.0618C60.3606 13.5265 60.66 12.3818 61.2608 11.6283C61.862 10.872 62.8867 10.4934 64.3356 10.4934C65.3863 10.4934 66.2067 10.6793 66.7877 11.0546C67.372 11.4235 67.7784 11.9458 68.0075 12.6191C68.2366 13.2924 68.3511 14.1322 68.3511 15.1359V23.965C68.3511 24.6995 68.5198 25.2505 68.8589 25.6194C69.1959 25.985 69.6512 26.1709 70.2276 26.1709C70.7776 26.1709 71.2213 25.985 71.5599 25.6194C71.8974 25.2505 72.0656 24.6995 72.0656 23.965V15.3315ZM38.9136 18.4415V9.80753C38.9136 9.07346 39.0823 8.522 39.4192 8.15679C39.7566 7.78753 40.2003 7.60492 40.7523 7.60492C41.3287 7.60492 41.7839 7.78753 42.1229 8.15679C42.4583 8.522 42.627 9.07346 42.627 9.80753V18.6366C42.627 19.6436 42.7431 20.4805 42.9722 21.1534C43.2017 21.8268 43.6094 22.3491 44.1919 22.7244C44.7749 23.0929 45.592 23.2791 46.643 23.2791C48.093 23.2791 49.1193 22.9009 49.7184 22.1474C50.3208 21.3907 50.6189 20.2465 50.6189 18.7135V9.80753C50.6189 9.06699 50.786 8.51512 51.1196 8.1499C51.4537 7.78469 51.899 7.60492 52.4589 7.60492C53.0171 7.60492 53.4673 7.78469 53.8142 8.1499C54.1595 8.51512 54.3331 9.06699 54.3331 9.80753V18.4415C54.3331 19.8456 54.1938 21.0186 53.9159 21.958C53.6356 22.8945 53.1089 23.7213 52.3328 24.4298C51.6667 25.0359 50.8906 25.4753 50.0066 25.7538C49.1226 26.0296 48.0897 26.1709 46.9047 26.1709C45.4969 26.1709 44.2837 26.0198 43.267 25.7218C42.2486 25.4238 41.42 24.9618 40.7783 24.3403C40.1346 23.7152 39.6636 22.9139 39.3638 21.9393C39.0641 20.9639 38.9136 19.7974 38.9136 18.4415Z" fill="white"/>
</svg>
