<svg width="80" height="80" viewBox="0 0 80 80" fill="none" xmlns="http://www.w3.org/2000/svg">
<path d="M61.9276 43.9755C57.5854 46.881 48.9516 46.687 49.4425 36.1367C49.5121 34.6342 49.5737 33.3177 49.6339 32.0317C49.7018 30.5824 49.7679 29.1719 49.8414 27.5774C49.9719 24.6507 46.2585 24.5974 45.8191 26.8954C45.6173 27.9405 45.475 29.1858 45.3224 30.5221C44.6569 36.3488 43.7939 43.9051 36.9316 44.1391C29.2959 44.3956 29.9546 33.8451 30.3317 27.8046C30.3763 27.0907 30.4169 26.4396 30.4394 25.8769C30.4463 25.7055 30.4543 25.5351 30.4622 25.3664C30.5569 23.3494 30.6401 21.5784 28.5331 21.3196C26.0333 21.0102 25.5398 26.3704 25.3723 28.1901C25.3627 28.2947 25.3541 28.3877 25.3463 28.4671C24.7249 34.6881 24.8674 46.0225 32.7677 47.7772C37.2055 48.7635 43.1461 47.0667 45.4441 39.8125H45.7915C46.2465 44.8367 50.7881 47.5143 55.2921 47.5143C58.3428 47.5143 61.048 46.1034 61.9276 44.9562V45.9517C61.9251 52.5654 56.5645 57.9264 49.9508 57.9295H25.9879C19.3705 57.931 14.0041 52.5691 14 45.9517V21.9842C14 18.8052 15.2631 15.7564 17.5114 13.5088C19.7597 11.2612 22.8088 9.99903 25.9879 10H49.9508C56.5672 10.0025 61.9292 15.3678 61.9276 21.9842V43.9755Z" fill="white"/>
<path d="M14.5037 63.0778V66.7195L14.5074 66.7186C14.4975 67.2173 14.5594 67.7147 14.6912 68.1957C14.7946 68.5778 14.9957 68.9263 15.2749 69.2068C15.5609 69.4839 15.9126 69.6838 16.297 69.7878C16.7848 69.9241 17.2898 69.9885 17.7962 69.9789C18.2317 69.9867 18.6657 69.9272 19.083 69.8025C19.4405 69.691 19.7682 69.5002 20.0417 69.2445C20.3526 68.9651 20.5788 68.6039 20.6944 68.2022C20.8226 67.7187 20.8814 67.2195 20.869 66.7195V63.0778C20.869 62.7634 20.7973 62.5327 20.6521 62.3755C20.5079 62.2225 20.3042 62.1399 20.0941 62.1494C19.8861 62.1405 19.6846 62.2232 19.5426 62.3755C19.4029 62.5327 19.3377 62.7634 19.3377 63.0778V66.8326C19.3377 67.4779 19.209 67.9595 18.9626 68.2803C18.7163 68.6011 18.2925 68.7592 17.6942 68.7592C17.264 68.7592 16.9257 68.6829 16.6831 68.5248C16.4438 68.3694 16.2658 68.1358 16.1794 67.8639C16.0771 67.5192 16.029 67.1608 16.0369 66.8013V63.0778C16.0369 62.7689 15.9707 62.5364 15.8301 62.3792C15.6837 62.223 15.4758 62.1393 15.262 62.1503C15.0534 62.1412 14.8514 62.225 14.7105 62.3792C14.5745 62.5364 14.5037 62.7689 14.5037 63.0778Z" fill="white"/>
<path d="M28.2858 65.407V69.0487C28.2858 69.3576 28.215 69.5929 28.079 69.7482C27.9313 69.8973 27.7301 69.9812 27.5201 69.9812C27.3102 69.9812 27.109 69.8973 26.9613 69.7482C26.8188 69.5938 26.7526 69.3585 26.7526 69.0487V65.3252C26.7614 64.9655 26.7124 64.6067 26.6074 64.2626C26.5232 63.9913 26.3462 63.7583 26.1074 63.6045C25.8684 63.4454 25.5265 63.3673 25.0963 63.3673C24.4979 63.3673 24.0742 63.5254 23.8241 63.848C23.5741 64.1707 23.4565 64.6486 23.4565 65.2939V69.0487C23.4565 69.3613 23.3894 69.5947 23.2487 69.7501C23.1081 69.9048 22.9061 69.9892 22.6972 69.9808C22.4826 69.9906 22.2743 69.9059 22.1273 69.7491C21.9886 69.5947 21.9141 69.3613 21.9141 69.0478V65.407C21.9025 64.9082 21.9613 64.4103 22.0887 63.928C22.2073 63.5266 22.4329 63.1649 22.7414 62.882C23.0168 62.6304 23.3441 62.4422 23.7001 62.3305C24.1173 62.2059 24.5515 62.1469 24.9869 62.1558C25.4928 62.1459 25.9976 62.2078 26.4861 62.3397C27.2727 62.5391 27.8894 63.1492 28.0974 63.9335C28.2301 64.4137 28.292 64.9107 28.2812 65.4088L28.2858 65.407Z" fill="white"/>
<path d="M29.7197 63.0787V69.0432L29.7225 69.0423C29.7225 69.3511 29.7942 69.5855 29.9394 69.7445C30.0787 69.8977 30.2775 69.9832 30.4845 69.9789C30.6962 69.9858 30.9005 69.901 31.0452 69.7464C31.1874 69.5914 31.2584 69.3567 31.2584 69.0423V63.0778C31.2584 62.7625 31.1877 62.5318 31.0452 62.3755C30.8985 62.2247 30.6948 62.1429 30.4845 62.1503C30.2758 62.1413 30.0739 62.2251 29.933 62.3792C29.7908 62.5355 29.7197 62.7686 29.7197 63.0787Z" fill="white"/>
<path fill-rule="evenodd" clip-rule="evenodd" d="M47.2944 69.8503C46.9193 69.8503 46.8118 69.5745 46.8118 69.5745L46.0011 67.4944H42.5643L41.7618 69.5699C41.7618 69.5699 41.6451 69.8457 41.2774 69.8457C40.9363 69.8457 40.9908 69.6201 41.0005 69.5802C41.0012 69.5771 41.0017 69.5752 41.0017 69.5745L43.8052 62.5998C43.9125 62.412 44.1123 62.2961 44.3286 62.2961C44.545 62.2961 44.7447 62.412 44.8521 62.5998L47.5811 69.5745C47.5811 69.5745 47.6694 69.8503 47.2944 69.8503ZM44.2942 63.0171L42.784 66.8878H45.7584L44.2942 63.0171Z" fill="white"/>
<path d="M39.1973 62.5823C39.2314 62.5079 39.3738 62.2974 39.8463 62.2974C40.3426 62.2974 40.3665 62.6807 40.3665 62.6807V69.4918C40.3665 69.6913 40.2048 69.853 40.0053 69.853C39.8058 69.853 39.6441 69.6913 39.6441 69.4918V63.3241H39.6257L37.1715 69.5221C37.0926 69.7158 36.9063 69.8443 36.6972 69.8493C36.4925 69.8416 36.3119 69.7131 36.2376 69.5221L33.7742 63.3241H33.7522V69.4881C33.7526 69.5829 33.7153 69.674 33.6483 69.7411C33.5813 69.8083 33.4903 69.8459 33.3955 69.8457C33.1974 69.8462 33.0362 69.6862 33.0352 69.4881V62.6807C33.0352 62.6807 33.0701 62.2974 33.5573 62.2974C34.0445 62.2974 34.1787 62.5217 34.2062 62.5888L36.7045 68.9191L39.1973 62.5823Z" fill="white"/>
<path fill-rule="evenodd" clip-rule="evenodd" d="M53.3609 68.9513C53.36 68.8456 53.3526 68.7528 53.3453 68.6755H53.3499C53.3315 68.4062 53.3058 68.1406 53.2791 67.8768C53.252 67.6307 53.1829 67.391 53.0751 67.1681C52.9775 66.9617 52.824 66.7869 52.632 66.6635C52.4408 66.5394 52.1733 66.4833 51.8369 66.4943H49.1079V69.4863C49.1077 69.5828 49.0685 69.6752 48.9993 69.7425C48.9301 69.8097 48.8367 69.8463 48.7402 69.8438C48.6456 69.8438 48.555 69.8061 48.4884 69.7389C48.4217 69.6718 48.3847 69.5808 48.3854 69.4863V62.5566C48.3825 62.4838 48.4111 62.4133 48.4639 62.3631C48.5167 62.3129 48.5886 62.288 48.6612 62.2946H51.8415C52.1402 62.2914 52.4378 62.3301 52.7258 62.4095C52.9893 62.4792 53.2364 62.6005 53.4528 62.7662C53.6662 62.9278 53.8372 63.1388 53.951 63.3811C54.0806 63.6561 54.1436 63.9578 54.1349 64.2617C54.1466 64.7061 54.0179 65.1428 53.7672 65.5099C53.5153 65.8638 53.1495 66.0862 52.6642 66.1901V66.2057C52.8799 66.2321 53.0887 66.2995 53.2791 66.4043C53.436 66.4956 53.5702 66.6213 53.6716 66.7719C53.7764 66.9275 53.8524 67.1006 53.8959 67.283C53.9442 67.4902 53.9749 67.7012 53.9878 67.9136C53.9888 67.9358 53.9899 67.9589 53.9912 67.9827L53.9961 68.0692C54.0014 68.1615 54.0073 68.2651 54.0108 68.3796C54.0163 68.5634 54.0319 68.7472 54.0475 68.9311C54.0683 69.11 54.1031 69.287 54.1514 69.4605C54.1593 69.4915 54.1696 69.5204 54.1797 69.5487L54.1802 69.5504C54.1852 69.5643 54.1901 69.5782 54.1946 69.592C54.1946 69.592 54.2608 69.8475 53.8977 69.8475C53.5346 69.8475 53.4427 69.592 53.4427 69.592C53.4181 69.4875 53.4 69.3816 53.3885 69.2749C53.3854 69.2406 53.3817 69.2068 53.378 69.1734C53.3697 69.0982 53.3616 69.0243 53.3609 68.9513ZM51.7882 65.8859C52.0024 65.8869 52.2153 65.8518 52.4178 65.782L52.4132 65.7857C52.6016 65.7226 52.7763 65.6244 52.928 65.4961C53.2472 65.2297 53.4267 64.8317 53.4151 64.4161C53.4151 63.9464 53.2791 63.5824 53.0135 63.3131C52.7478 63.0438 52.3342 62.9105 51.7827 62.9105H49.1024V65.8859H51.7882Z" fill="white"/>
<path d="M60.6546 67.5201C60.6546 67.5201 60.7272 67.1975 61.1004 67.3308H61.1077C61.1077 67.3308 61.3954 67.4016 61.3605 67.6378C61.3098 67.8417 61.2402 68.0405 61.1528 68.2316C60.9994 68.5883 60.7777 68.9114 60.5002 69.1829C60.2276 69.4453 59.9054 69.6507 59.5525 69.7868C59.1659 69.9318 58.7557 70.0038 58.3428 69.9992C57.804 70.0109 57.2696 69.8996 56.7803 69.6738C56.3477 69.4718 55.9653 69.1764 55.6607 68.8088C55.3616 68.4391 55.1363 68.0153 54.9971 67.5606C54.8464 67.0784 54.7714 66.5758 54.7746 66.0706C54.7718 65.564 54.8468 65.0599 54.9971 64.576C55.1376 64.1207 55.3627 63.696 55.6607 63.3241C55.9655 62.9569 56.3478 62.6618 56.7803 62.4601C57.6039 62.098 58.5295 62.0407 59.3916 62.2983C59.7259 62.4012 60.0402 62.5604 60.3209 62.7689C60.6015 62.9762 60.8386 63.2367 61.0186 63.5355C61.0574 63.5935 61.0907 63.6551 61.1178 63.7194C61.1686 63.7958 61.1803 63.8917 61.1496 63.9781C61.1189 64.0646 61.0492 64.1315 60.9616 64.1587C60.5424 64.315 60.4505 63.9969 60.4505 63.9969V64.0061C60.4185 63.9382 60.3826 63.8722 60.343 63.8085C60.2035 63.5854 60.024 63.3901 59.8135 63.2322C59.6071 63.0758 59.3764 62.9544 59.1306 62.8728C58.8762 62.7902 58.6103 62.7487 58.3428 62.7496C57.8956 62.7368 57.452 62.8343 57.0514 63.0337C56.7032 63.2149 56.4013 63.4737 56.169 63.7901C55.9356 64.1098 55.7639 64.4701 55.6625 64.8527C55.4399 65.6463 55.4399 66.4858 55.6625 67.2793C55.763 67.6645 55.9348 68.0274 56.169 68.3492C56.4016 68.6654 56.7034 68.9241 57.0514 69.1057C57.4522 69.3047 57.8956 69.4025 58.3428 69.3907C58.6673 69.3979 58.9895 69.3342 59.2868 69.2041C59.5626 69.0831 59.8106 68.907 60.0157 68.6866C60.2254 68.4606 60.3954 68.2008 60.5185 67.9181C60.5673 67.7913 60.6132 67.6608 60.6546 67.5201Z" fill="white"/>
<path fill-rule="evenodd" clip-rule="evenodd" d="M64.7017 69.1747C64.7017 69.1554 64.7017 69.0552 64.6943 68.9908L64.6934 68.989C64.676 68.7105 64.584 68.6029 64.4002 68.6029H63.7926V69.2896C63.7921 69.3329 63.7569 69.3677 63.7136 69.3677C63.6745 69.3633 63.646 69.3287 63.6492 69.2896L63.6419 67.727C63.6392 67.711 63.6445 67.6948 63.656 67.6834C63.6676 67.6721 63.6839 67.6671 63.6998 67.67H64.3717C64.6153 67.67 64.8653 67.8272 64.8653 68.1204C64.8653 68.4917 64.551 68.5276 64.551 68.5276C64.6438 68.5377 64.8368 68.6094 64.8368 68.8952C64.8343 69.0399 64.8513 69.1843 64.8874 69.3245C64.8874 69.3465 64.8736 69.3677 64.823 69.3677C64.7238 69.3677 64.7164 69.3107 64.7017 69.1747ZM63.7936 68.4715H64.3653C64.5657 68.4715 64.7155 68.3502 64.7155 68.1498C64.7198 68.0568 64.6838 67.9666 64.6167 67.9021C64.5496 67.8377 64.458 67.8053 64.3653 67.8134H63.7936V68.4715Z" fill="white"/>
<path fill-rule="evenodd" clip-rule="evenodd" d="M62.7953 68.5257C62.7953 67.7135 63.4538 67.055 64.266 67.055C65.0782 67.055 65.7367 67.7135 65.7367 68.5257C65.7367 69.338 65.0782 69.9964 64.266 69.9964C63.4548 69.9939 62.7979 69.3369 62.7953 68.5257ZM62.9387 68.5257C62.9408 69.2583 63.5362 69.8504 64.2688 69.8484C65.0013 69.8464 65.5935 69.2509 65.5915 68.5184C65.5894 67.7858 64.9939 67.1936 64.2614 67.1957C63.5304 67.2012 62.9402 67.7946 62.9387 68.5257Z" fill="white"/>
</svg>
